<?xml version="1.0" encoding="utf-8" ?>
<svg xmlns="http://www.w3.org/2000/svg" xmlns:xlink="http://www.w3.org/1999/xlink" width="798" height="297">
	<rect fill="#222" width="798" height="297"/>
	<text fill="white" font-size="20" font-weight="600" font-family="Microsoft YaHei, 微软雅黑" x="370.33203, 382.66602, 395, 407.33398, " y="40, ">
			2024
	</text>
	<text fill="white" font-size="14" font-family="Microsoft YaHei, 微软雅黑" x="543.12207, 557.12207, 571.12207, 585.12207, 599.12207, 613.12207, 627.12207, 641.12207, 649.33203, 657.54199, 665.75195, 673.96191, 679.94336, 688.15332, 694.13477, 702.34473, 705.71484, 709.85742, 718.06738, 721.4375, 729.64746, 737.85742, 742, 756, " y="70, ">
			最近一次跑步：2024/8/9, 5.79 公里
	</text>
	<text fill="white" font-size="14" font-family="Microsoft YaHei, 微软雅黑" x="1, " y="130, ">
			一
	</text>
	<text fill="white" font-size="14" font-family="Microsoft YaHei, 微软雅黑" x="1, " y="158, ">
			三
	</text>
	<text fill="white" font-size="14" font-family="Microsoft YaHei, 微软雅黑" x="1, " y="186, ">
			五
	</text>
	<text fill="white" font-size="14" font-family="Microsoft YaHei, 微软雅黑" x="30, 38.209961, " y="100, ">
			1月
	</text>
	<text fill="white" font-size="14" font-family="Microsoft YaHei, 微软雅黑" x="86, 94.209961, " y="100, ">
			2月
	</text>
	<text fill="white" font-size="14" font-family="Microsoft YaHei, 微软雅黑" x="142, 150.20996, " y="100, ">
			3月
	</text>
	<text fill="white" font-size="14" font-family="Microsoft YaHei, 微软雅黑" x="212, 220.20996, " y="100, ">
			4月
	</text>
	<text fill="white" font-size="14" font-family="Microsoft YaHei, 微软雅黑" x="268, 276.20996, " y="100, ">
			5月
	</text>
	<text fill="white" font-size="14" font-family="Microsoft YaHei, 微软雅黑" x="324, 332.20996, " y="100, ">
			6月
	</text>
	<text fill="white" font-size="14" font-family="Microsoft YaHei, 微软雅黑" x="394, 402.20996, " y="100, ">
			7月
	</text>
	<text fill="white" font-size="14" font-family="Microsoft YaHei, 微软雅黑" x="450, 458.20996, " y="100, ">
			8月
	</text>
	<text fill="white" font-size="14" font-family="Microsoft YaHei, 微软雅黑" x="506, 514.20996, " y="100, ">
			9月
	</text>
	<text fill="white" font-size="14" font-family="Microsoft YaHei, 微软雅黑" x="576, 584.20996, 592.41992, " y="100, ">
			10月
	</text>
	<text fill="white" font-size="14" font-family="Microsoft YaHei, 微软雅黑" x="632, 640.20996, 648.41992, " y="100, ">
			11月
	</text>
	<text fill="white" font-size="14" font-family="Microsoft YaHei, 微软雅黑" x="688, 696.20996, 704.41992, " y="100, ">
			12月
	</text>
	<rect fill="#444" x="30" y="120" width="12" height="12"/>
	<rect fill="#444" x="30" y="134" width="12" height="12"/>
	<rect fill="#444" x="30" y="148" width="12" height="12"/>
	<rect fill="#444" x="30" y="162" width="12" height="12"/>
	<rect fill="#444" x="30" y="176" width="12" height="12"/>
	<rect fill="#444" x="30" y="190" width="12" height="12"/>
	<rect fill="#444" x="30" y="204" width="12" height="12"/>
	<rect fill="#444" x="44" y="120" width="12" height="12"/>
	<rect fill="#444" x="44" y="134" width="12" height="12"/>
	<rect fill="#444" x="44" y="148" width="12" height="12"/>
	<rect fill="#444" x="44" y="162" width="12" height="12"/>
	<rect fill="#444" x="44" y="176" width="12" height="12"/>
	<rect fill="#444" x="44" y="190" width="12" height="12"/>
	<rect fill="#444" x="44" y="204" width="12" height="12"/>
	<rect fill="#444" x="58" y="120" width="12" height="12"/>
	<rect fill="#444" x="58" y="134" width="12" height="12"/>
	<rect fill="#444" x="58" y="148" width="12" height="12"/>
	<rect fill="#444" x="58" y="162" width="12" height="12"/>
	<rect fill="#444" x="58" y="176" width="12" height="12"/>
	<rect fill="#444" x="58" y="190" width="12" height="12"/>
	<rect fill="#444" x="58" y="204" width="12" height="12"/>
	<rect fill="#444" x="72" y="120" width="12" height="12"/>
	<rect fill="#444" x="72" y="134" width="12" height="12"/>
	<rect fill="#444" x="72" y="148" width="12" height="12"/>
	<rect fill="#444" x="72" y="162" width="12" height="12"/>
	<rect fill="#444" x="72" y="176" width="12" height="12"/>
	<rect fill="#444" x="72" y="190" width="12" height="12"/>
	<rect fill="#444" x="72" y="204" width="12" height="12"/>
	<rect fill="#444" x="86" y="120" width="12" height="12"/>
	<rect fill="#444" x="86" y="134" width="12" height="12"/>
	<rect fill="#444" x="86" y="148" width="12" height="12"/>
	<rect fill="#444" x="86" y="162" width="12" height="12"/>
	<rect fill="#444" x="86" y="176" width="12" height="12"/>
	<rect fill="#444" x="86" y="190" width="12" height="12"/>
	<rect fill="#444" x="86" y="204" width="12" height="12"/>
	<rect fill="#444" x="100" y="120" width="12" height="12"/>
	<rect fill="#444" x="100" y="134" width="12" height="12"/>
	<rect fill="#444" x="100" y="148" width="12" height="12"/>
	<rect fill="#444" x="100" y="162" width="12" height="12"/>
	<rect fill="#444" x="100" y="176" width="12" height="12"/>
	<rect fill="#444" x="100" y="190" width="12" height="12"/>
	<rect fill="#444" x="100" y="204" width="12" height="12"/>
	<rect fill="#444" x="114" y="120" width="12" height="12"/>
	<rect fill="#444" x="114" y="134" width="12" height="12"/>
	<rect fill="#444" x="114" y="148" width="12" height="12"/>
	<rect fill="#444" x="114" y="162" width="12" height="12"/>
	<rect fill="#444" x="114" y="176" width="12" height="12"/>
	<rect fill="#444" x="114" y="190" width="12" height="12"/>
	<rect fill="#444" x="114" y="204" width="12" height="12"/>
	<rect fill="#444" x="128" y="120" width="12" height="12"/>
	<rect fill="#444" x="128" y="134" width="12" height="12"/>
	<rect fill="#444" x="128" y="148" width="12" height="12"/>
	<rect fill="#444" x="128" y="162" width="12" height="12"/>
	<rect fill="#444" x="128" y="176" width="12" height="12"/>
	<rect fill="#444" x="128" y="190" width="12" height="12"/>
	<rect fill="#444" x="128" y="204" width="12" height="12"/>
	<rect fill="#444" x="142" y="120" width="12" height="12"/>
	<rect fill="#444" x="142" y="134" width="12" height="12"/>
	<rect fill="#444" x="142" y="148" width="12" height="12"/>
	<rect fill="#444" x="142" y="162" width="12" height="12"/>
	<rect fill="#444" x="142" y="176" width="12" height="12"/>
	<rect fill="#444" x="142" y="190" width="12" height="12"/>
	<rect fill="#444" x="142" y="204" width="12" height="12"/>
	<rect fill="#444" x="156" y="120" width="12" height="12"/>
	<rect fill="#444" x="156" y="134" width="12" height="12"/>
	<rect fill="#444" x="156" y="148" width="12" height="12"/>
	<rect fill="#444" x="156" y="162" width="12" height="12"/>
	<rect fill="#444" x="156" y="176" width="12" height="12"/>
	<rect fill="#444" x="156" y="190" width="12" height="12"/>
	<rect fill="#444" x="156" y="204" width="12" height="12"/>
	<rect fill="#FFB100" x="170" y="120" width="12" height="12"/>
	<rect fill="#444" x="170" y="134" width="12" height="12"/>
	<rect fill="#FF9400" x="170" y="148" width="12" height="12"/>
	<rect fill="#444" x="170" y="162" width="12" height="12"/>
	<rect fill="#FF9400" x="170" y="176" width="12" height="12"/>
	<rect fill="#444" x="170" y="190" width="12" height="12"/>
	<rect fill="#444" x="170" y="204" width="12" height="12"/>
	<rect fill="#444" x="184" y="120" width="12" height="12"/>
	<rect fill="#444" x="184" y="134" width="12" height="12"/>
	<rect fill="#444" x="184" y="148" width="12" height="12"/>
	<rect fill="#444" x="184" y="162" width="12" height="12"/>
	<rect fill="#FF9400" x="184" y="176" width="12" height="12"/>
	<rect fill="#444" x="184" y="190" width="12" height="12"/>
	<rect fill="#444" x="184" y="204" width="12" height="12"/>
	<rect fill="#444" x="198" y="120" width="12" height="12"/>
	<rect fill="#444" x="198" y="134" width="12" height="12"/>
	<rect fill="#444" x="198" y="148" width="12" height="12"/>
	<rect fill="#444" x="198" y="162" width="12" height="12"/>
	<rect fill="#FF9400" x="198" y="176" width="12" height="12"/>
	<rect fill="#444" x="198" y="190" width="12" height="12"/>
	<rect fill="#444" x="198" y="204" width="12" height="12"/>
	<rect fill="#444" x="212" y="120" width="12" height="12"/>
	<rect fill="#444" x="212" y="134" width="12" height="12"/>
	<rect fill="#444" x="212" y="148" width="12" height="12"/>
	<rect fill="#444" x="212" y="162" width="12" height="12"/>
	<rect fill="#444" x="212" y="176" width="12" height="12"/>
	<rect fill="#444" x="212" y="190" width="12" height="12"/>
	<rect fill="#444" x="212" y="204" width="12" height="12"/>
	<rect fill="#444" x="226" y="120" width="12" height="12"/>
	<rect fill="#444" x="226" y="134" width="12" height="12"/>
	<rect fill="#444" x="226" y="148" width="12" height="12"/>
	<rect fill="#444" x="226" y="162" width="12" height="12"/>
	<rect fill="#FF5800" x="226" y="176" width="12" height="12"/>
	<rect fill="#444" x="226" y="190" width="12" height="12"/>
	<rect fill="#444" x="226" y="204" width="12" height="12"/>
	<rect fill="#444" x="240" y="120" width="12" height="12"/>
	<rect fill="#444" x="240" y="134" width="12" height="12"/>
	<rect fill="#444" x="240" y="148" width="12" height="12"/>
	<rect fill="#444" x="240" y="162" width="12" height="12"/>
	<rect fill="#FF5B00" x="240" y="176" width="12" height="12"/>
	<rect fill="#444" x="240" y="190" width="12" height="12"/>
	<rect fill="#444" x="240" y="204" width="12" height="12"/>
	<rect fill="#FF5B00" x="254" y="120" width="12" height="12"/>
	<rect fill="#444" x="254" y="134" width="12" height="12"/>
	<rect fill="#FF5800" x="254" y="148" width="12" height="12"/>
	<rect fill="#444" x="254" y="162" width="12" height="12"/>
	<rect fill="#FF5B00" x="254" y="176" width="12" height="12"/>
	<rect fill="#444" x="254" y="190" width="12" height="12"/>
	<rect fill="#444" x="254" y="204" width="12" height="12"/>
	<rect fill="#F50" x="268" y="120" width="12" height="12"/>
	<rect fill="#444" x="268" y="134" width="12" height="12"/>
	<rect fill="#444" x="268" y="148" width="12" height="12"/>
	<rect fill="#444" x="268" y="162" width="12" height="12"/>
	<rect fill="#444" x="268" y="176" width="12" height="12"/>
	<rect fill="#444" x="268" y="190" width="12" height="12"/>
	<rect fill="#444" x="268" y="204" width="12" height="12"/>
	<rect fill="#444" x="282" y="120" width="12" height="12"/>
	<rect fill="#444" x="282" y="134" width="12" height="12"/>
	<rect fill="#FF6B00" x="282" y="148" width="12" height="12"/>
	<rect fill="#444" x="282" y="162" width="12" height="12"/>
	<rect fill="#444" x="282" y="176" width="12" height="12"/>
	<rect fill="#444" x="282" y="190" width="12" height="12"/>
	<rect fill="#444" x="282" y="204" width="12" height="12"/>
	<rect fill="#444" x="296" y="120" width="12" height="12"/>
	<rect fill="#444" x="296" y="134" width="12" height="12"/>
	<rect fill="#444" x="296" y="148" width="12" height="12"/>
	<rect fill="#444" x="296" y="162" width="12" height="12"/>
	<rect fill="#444" x="296" y="176" width="12" height="12"/>
	<rect fill="#444" x="296" y="190" width="12" height="12"/>
	<rect fill="#444" x="296" y="204" width="12" height="12"/>
	<rect fill="#444" x="310" y="120" width="12" height="12"/>
	<rect fill="#444" x="310" y="134" width="12" height="12"/>
	<rect fill="#444" x="310" y="148" width="12" height="12"/>
	<rect fill="#444" x="310" y="162" width="12" height="12"/>
	<rect fill="#FF5800" x="310" y="176" width="12" height="12"/>
	<rect fill="#444" x="310" y="190" width="12" height="12"/>
	<rect fill="#444" x="310" y="204" width="12" height="12"/>
	<rect fill="#FF5B00" x="324" y="120" width="12" height="12"/>
	<rect fill="#444" x="324" y="134" width="12" height="12"/>
	<rect fill="#FF5B00" x="324" y="148" width="12" height="12"/>
	<rect fill="#444" x="324" y="162" width="12" height="12"/>
	<rect fill="#FF5D00" x="324" y="176" width="12" height="12"/>
	<rect fill="#444" x="324" y="190" width="12" height="12"/>
	<rect fill="#444" x="324" y="204" width="12" height="12"/>
	<rect fill="#FF5B00" x="338" y="120" width="12" height="12"/>
	<rect fill="#444" x="338" y="134" width="12" height="12"/>
	<rect fill="#FF8400" x="338" y="148" width="12" height="12"/>
	<rect fill="#444" x="338" y="162" width="12" height="12"/>
	<rect fill="#FFF300" x="338" y="176" width="12" height="12"/>
	<rect fill="#FF8400" x="338" y="190" width="12" height="12"/>
	<rect fill="#444" x="338" y="204" width="12" height="12"/>
	<rect fill="#FF7600" x="352" y="120" width="12" height="12"/>
	<rect fill="#444" x="352" y="134" width="12" height="12"/>
	<rect fill="#FF8400" x="352" y="148" width="12" height="12"/>
	<rect fill="#444" x="352" y="162" width="12" height="12"/>
	<rect fill="#FF8400" x="352" y="176" width="12" height="12"/>
	<rect fill="#444" x="352" y="190" width="12" height="12"/>
	<rect fill="#444" x="352" y="204" width="12" height="12"/>
	<rect fill="#FF8400" x="366" y="120" width="12" height="12"/>
	<rect fill="#444" x="366" y="134" width="12" height="12"/>
	<rect fill="#FF8400" x="366" y="148" width="12" height="12"/>
	<rect fill="#444" x="366" y="162" width="12" height="12"/>
	<rect fill="#FF8400" x="366" y="176" width="12" height="12"/>
	<rect fill="#444" x="366" y="190" width="12" height="12"/>
	<rect fill="#444" x="366" y="204" width="12" height="12"/>
	<rect fill="#FF8400" x="380" y="120" width="12" height="12"/>
	<rect fill="#444" x="380" y="134" width="12" height="12"/>
	<rect fill="#FF8400" x="380" y="148" width="12" height="12"/>
	<rect fill="#444" x="380" y="162" width="12" height="12"/>
	<rect fill="#FF8400" x="380" y="176" width="12" height="12"/>
	<rect fill="#444" x="380" y="190" width="12" height="12"/>
	<rect fill="#444" x="380" y="204" width="12" height="12"/>
	<rect fill="#444" x="394" y="120" width="12" height="12"/>
	<rect fill="#444" x="394" y="134" width="12" height="12"/>
	<rect fill="#FF8400" x="394" y="148" width="12" height="12"/>
	<rect fill="#444" x="394" y="162" width="12" height="12"/>
	<rect fill="#FF8400" x="394" y="176" width="12" height="12"/>
	<rect fill="#444" x="394" y="190" width="12" height="12"/>
	<rect fill="#444" x="394" y="204" width="12" height="12"/>
	<rect fill="#FF8400" x="408" y="120" width="12" height="12"/>
	<rect fill="#444" x="408" y="134" width="12" height="12"/>
	<rect fill="#FF8400" x="408" y="148" width="12" height="12"/>
	<rect fill="#444" x="408" y="162" width="12" height="12"/>
	<rect fill="#444" x="408" y="176" width="12" height="12"/>
	<rect fill="#444" x="408" y="190" width="12" height="12"/>
	<rect fill="#444" x="408" y="204" width="12" height="12"/>
	<rect fill="#444" x="422" y="120" width="12" height="12"/>
	<rect fill="#444" x="422" y="134" width="12" height="12"/>
	<rect fill="#FF8400" x="422" y="148" width="12" height="12"/>
	<rect fill="#444" x="422" y="162" width="12" height="12"/>
	<rect fill="#FF8400" x="422" y="176" width="12" height="12"/>
	<rect fill="#444" x="422" y="190" width="12" height="12"/>
	<rect fill="#444" x="422" y="204" width="12" height="12"/>
	<rect fill="#FF8400" x="436" y="120" width="12" height="12"/>
	<rect fill="#444" x="436" y="134" width="12" height="12"/>
	<rect fill="#FF8400" x="436" y="148" width="12" height="12"/>
	<rect fill="#444" x="436" y="162" width="12" height="12"/>
	<rect fill="#FF8400" x="436" y="176" width="12" height="12"/>
	<rect fill="#444" x="436" y="190" width="12" height="12"/>
	<rect fill="#444" x="436" y="204" width="12" height="12"/>
	<rect fill="#FF8400" x="450" y="120" width="12" height="12"/>
	<rect fill="#444" x="450" y="134" width="12" height="12"/>
	<rect fill="#FF8400" x="450" y="148" width="12" height="12"/>
	<rect fill="#444" x="450" y="162" width="12" height="12"/>
	<rect fill="#FF8400" x="450" y="176" width="12" height="12"/>
	<rect fill="#444" x="450" y="190" width="12" height="12"/>
	<rect fill="#444" x="450" y="204" width="12" height="12"/>
	<rect fill="#FF7800" x="464" y="120" width="12" height="12"/>
	<rect fill="#444" x="464" y="134" width="12" height="12"/>
	<rect fill="#FF7500" x="464" y="148" width="12" height="12"/>
	<rect fill="#444" x="464" y="162" width="12" height="12"/>
	<rect fill="#FF6E00" x="464" y="176" width="12" height="12"/>
	<rect fill="#444" x="464" y="190" width="12" height="12"/>
	<rect fill="#444" x="464" y="204" width="12" height="12"/>
	<rect fill="#444" x="478" y="120" width="12" height="12"/>
	<rect fill="#444" x="478" y="134" width="12" height="12"/>
	<rect fill="#444" x="478" y="148" width="12" height="12"/>
	<rect fill="#444" x="478" y="162" width="12" height="12"/>
	<rect fill="#444" x="478" y="176" width="12" height="12"/>
	<rect fill="#444" x="478" y="190" width="12" height="12"/>
	<rect fill="#444" x="478" y="204" width="12" height="12"/>
	<rect fill="#444" x="492" y="120" width="12" height="12"/>
	<rect fill="#444" x="492" y="134" width="12" height="12"/>
	<rect fill="#444" x="492" y="148" width="12" height="12"/>
	<rect fill="#444" x="492" y="162" width="12" height="12"/>
	<rect fill="#444" x="492" y="176" width="12" height="12"/>
	<rect fill="#444" x="492" y="190" width="12" height="12"/>
	<rect fill="#444" x="492" y="204" width="12" height="12"/>
	<rect fill="#444" x="506" y="120" width="12" height="12"/>
	<rect fill="#444" x="506" y="134" width="12" height="12"/>
	<rect fill="#444" x="506" y="148" width="12" height="12"/>
	<rect fill="#444" x="506" y="162" width="12" height="12"/>
	<rect fill="#444" x="506" y="176" width="12" height="12"/>
	<rect fill="#444" x="506" y="190" width="12" height="12"/>
	<rect fill="#444" x="506" y="204" width="12" height="12"/>
	<rect fill="#444" x="520" y="120" width="12" height="12"/>
	<rect fill="#444" x="520" y="134" width="12" height="12"/>
	<rect fill="#444" x="520" y="148" width="12" height="12"/>
	<rect fill="#444" x="520" y="162" width="12" height="12"/>
	<rect fill="#444" x="520" y="176" width="12" height="12"/>
	<rect fill="#444" x="520" y="190" width="12" height="12"/>
	<rect fill="#444" x="520" y="204" width="12" height="12"/>
	<rect fill="#444" x="534" y="120" width="12" height="12"/>
	<rect fill="#444" x="534" y="134" width="12" height="12"/>
	<rect fill="#444" x="534" y="148" width="12" height="12"/>
	<rect fill="#444" x="534" y="162" width="12" height="12"/>
	<rect fill="#444" x="534" y="176" width="12" height="12"/>
	<rect fill="#444" x="534" y="190" width="12" height="12"/>
	<rect fill="#444" x="534" y="204" width="12" height="12"/>
	<rect fill="#444" x="548" y="120" width="12" height="12"/>
	<rect fill="#444" x="548" y="134" width="12" height="12"/>
	<rect fill="#444" x="548" y="148" width="12" height="12"/>
	<rect fill="#444" x="548" y="162" width="12" height="12"/>
	<rect fill="#444" x="548" y="176" width="12" height="12"/>
	<rect fill="#444" x="548" y="190" width="12" height="12"/>
	<rect fill="#444" x="548" y="204" width="12" height="12"/>
	<rect fill="#444" x="562" y="120" width="12" height="12"/>
	<rect fill="#444" x="562" y="134" width="12" height="12"/>
	<rect fill="#444" x="562" y="148" width="12" height="12"/>
	<rect fill="#444" x="562" y="162" width="12" height="12"/>
	<rect fill="#444" x="562" y="176" width="12" height="12"/>
	<rect fill="#444" x="562" y="190" width="12" height="12"/>
	<rect fill="#444" x="562" y="204" width="12" height="12"/>
	<rect fill="#444" x="576" y="120" width="12" height="12"/>
	<rect fill="#444" x="576" y="134" width="12" height="12"/>
	<rect fill="#444" x="576" y="148" width="12" height="12"/>
	<rect fill="#444" x="576" y="162" width="12" height="12"/>
	<rect fill="#444" x="576" y="176" width="12" height="12"/>
	<rect fill="#444" x="576" y="190" width="12" height="12"/>
	<rect fill="#444" x="576" y="204" width="12" height="12"/>
	<rect fill="#444" x="590" y="120" width="12" height="12"/>
	<rect fill="#444" x="590" y="134" width="12" height="12"/>
	<rect fill="#444" x="590" y="148" width="12" height="12"/>
	<rect fill="#444" x="590" y="162" width="12" height="12"/>
	<rect fill="#444" x="590" y="176" width="12" height="12"/>
	<rect fill="#444" x="590" y="190" width="12" height="12"/>
	<rect fill="#444" x="590" y="204" width="12" height="12"/>
	<rect fill="#444" x="604" y="120" width="12" height="12"/>
	<rect fill="#444" x="604" y="134" width="12" height="12"/>
	<rect fill="#444" x="604" y="148" width="12" height="12"/>
	<rect fill="#444" x="604" y="162" width="12" height="12"/>
	<rect fill="#444" x="604" y="176" width="12" height="12"/>
	<rect fill="#444" x="604" y="190" width="12" height="12"/>
	<rect fill="#444" x="604" y="204" width="12" height="12"/>
	<rect fill="#444" x="618" y="120" width="12" height="12"/>
	<rect fill="#444" x="618" y="134" width="12" height="12"/>
	<rect fill="#444" x="618" y="148" width="12" height="12"/>
	<rect fill="#444" x="618" y="162" width="12" height="12"/>
	<rect fill="#444" x="618" y="176" width="12" height="12"/>
	<rect fill="#444" x="618" y="190" width="12" height="12"/>
	<rect fill="#444" x="618" y="204" width="12" height="12"/>
	<rect fill="#444" x="632" y="120" width="12" height="12"/>
	<rect fill="#444" x="632" y="134" width="12" height="12"/>
	<rect fill="#444" x="632" y="148" width="12" height="12"/>
	<rect fill="#444" x="632" y="162" width="12" height="12"/>
	<rect fill="#444" x="632" y="176" width="12" height="12"/>
	<rect fill="#444" x="632" y="190" width="12" height="12"/>
	<rect fill="#444" x="632" y="204" width="12" height="12"/>
	<rect fill="#444" x="646" y="120" width="12" height="12"/>
	<rect fill="#444" x="646" y="134" width="12" height="12"/>
	<rect fill="#444" x="646" y="148" width="12" height="12"/>
	<rect fill="#444" x="646" y="162" width="12" height="12"/>
	<rect fill="#444" x="646" y="176" width="12" height="12"/>
	<rect fill="#444" x="646" y="190" width="12" height="12"/>
	<rect fill="#444" x="646" y="204" width="12" height="12"/>
	<rect fill="#444" x="660" y="120" width="12" height="12"/>
	<rect fill="#444" x="660" y="134" width="12" height="12"/>
	<rect fill="#444" x="660" y="148" width="12" height="12"/>
	<rect fill="#444" x="660" y="162" width="12" height="12"/>
	<rect fill="#444" x="660" y="176" width="12" height="12"/>
	<rect fill="#444" x="660" y="190" width="12" height="12"/>
	<rect fill="#444" x="660" y="204" width="12" height="12"/>
	<rect fill="#444" x="674" y="120" width="12" height="12"/>
	<rect fill="#444" x="674" y="134" width="12" height="12"/>
	<rect fill="#444" x="674" y="148" width="12" height="12"/>
	<rect fill="#444" x="674" y="162" width="12" height="12"/>
	<rect fill="#444" x="674" y="176" width="12" height="12"/>
	<rect fill="#444" x="674" y="190" width="12" height="12"/>
	<rect fill="#444" x="674" y="204" width="12" height="12"/>
	<rect fill="#444" x="688" y="120" width="12" height="12"/>
	<rect fill="#444" x="688" y="134" width="12" height="12"/>
	<rect fill="#444" x="688" y="148" width="12" height="12"/>
	<rect fill="#444" x="688" y="162" width="12" height="12"/>
	<rect fill="#444" x="688" y="176" width="12" height="12"/>
	<rect fill="#444" x="688" y="190" width="12" height="12"/>
	<rect fill="#444" x="688" y="204" width="12" height="12"/>
	<rect fill="#444" x="702" y="120" width="12" height="12"/>
	<rect fill="#444" x="702" y="134" width="12" height="12"/>
	<rect fill="#444" x="702" y="148" width="12" height="12"/>
	<rect fill="#444" x="702" y="162" width="12" height="12"/>
	<rect fill="#444" x="702" y="176" width="12" height="12"/>
	<rect fill="#444" x="702" y="190" width="12" height="12"/>
	<rect fill="#444" x="702" y="204" width="12" height="12"/>
	<rect fill="#444" x="716" y="120" width="12" height="12"/>
	<rect fill="#444" x="716" y="134" width="12" height="12"/>
	<rect fill="#444" x="716" y="148" width="12" height="12"/>
	<rect fill="#444" x="716" y="162" width="12" height="12"/>
	<rect fill="#444" x="716" y="176" width="12" height="12"/>
	<rect fill="#444" x="716" y="190" width="12" height="12"/>
	<rect fill="#444" x="716" y="204" width="12" height="12"/>
	<rect fill="#444" x="730" y="120" width="12" height="12"/>
	<rect fill="#444" x="730" y="134" width="12" height="12"/>
	<rect fill="#444" x="730" y="148" width="12" height="12"/>
	<rect fill="#444" x="730" y="162" width="12" height="12"/>
	<rect fill="#444" x="730" y="176" width="12" height="12"/>
	<rect fill="#444" x="730" y="190" width="12" height="12"/>
	<rect fill="#444" x="730" y="204" width="12" height="12"/>
	<rect fill="#444" x="744" y="120" width="12" height="12"/>
	<rect fill="#444" x="744" y="134" width="12" height="12"/>
	<rect fill="#444" x="744" y="148" width="12" height="12"/>
	<rect fill="#444" x="744" y="162" width="12" height="12"/>
	<rect fill="#444" x="744" y="176" width="12" height="12"/>
	<rect fill="#444" x="744" y="190" width="12" height="12"/>
	<rect fill="#444" x="744" y="204" width="12" height="12"/>
	<rect fill="#444" x="758" y="120" width="12" height="12"/>
	<rect fill="#444" x="758" y="134" width="12" height="12"/>
	<text fill="white" font-size="14" font-family="Microsoft YaHei, 微软雅黑" x="30, 44, 58, 72, 86, " y="240, ">
			跑步天数:
	</text>
	<text fill="white" font-size="14" font-family="Microsoft YaHei, 微软雅黑" x="132.37012, 140.58008, " y="240, ">
			44
	</text>
	<text fill="white" font-size="14" font-family="Microsoft YaHei, 微软雅黑" x="152.93262, " y="240, ">
			天
	</text>
	<text fill="white" font-size="14" font-family="Microsoft YaHei, 微软雅黑" x="30, 44, 58, 72, " y="260, ">
			总里程:
	</text>
	<text fill="white" font-size="14" font-family="Microsoft YaHei, 微软雅黑" x="104.37012, 112.58008, 120.79004, 129, 132.37012, 140.58008, " y="260, ">
			232.34
	</text>
	<text fill="white" font-size="14" font-family="Microsoft YaHei, 微软雅黑" x="152.93262, 160.55469, " y="260, ">
			km
	</text>
	<rect fill="#444" x="598" y="240" width="12" height="12"/>
	<rect fill="yellow" x="610" y="240" width="12" height="12"/>
	<rect fill="#FFDB00" x="622" y="240" width="12" height="12"/>
	<rect fill="#FFBD00" x="634" y="240" width="12" height="12"/>
	<rect fill="#FFA000" x="646" y="240" width="12" height="12"/>
	<rect fill="#FF8400" x="658" y="240" width="12" height="12"/>
	<rect fill="#FF6800" x="670" y="240" width="12" height="12"/>
	<rect fill="#FF4D00" x="682" y="240" width="12" height="12"/>
	<rect fill="#F30" x="694" y="240" width="12" height="12"/>
	<rect fill="#FF1900" x="706" y="240" width="12" height="12"/>
	<rect fill="red" x="718" y="240" width="12" height="12"/>
	<text fill="white" font-size="12" font-family="Microsoft YaHei, 微软雅黑" x="567.59277, 574.62988, 581.16309, " y="252, ">
			0km
	</text>
	<text fill="white" font-size="12" font-family="Microsoft YaHei, 微软雅黑" x="661.59277, 668.62988, 675.16309, " y="263, ">
			5km
	</text>
	<text fill="white" font-size="12" font-family="Microsoft YaHei, 微软雅黑" x="735, 742.03711, 749.07422, 755.60742, " y="252, ">
			10km
	</text>
</svg>
