<?xml version="1.0" encoding="UTF-8"?>
<svg width="790" height="240" version="1.1" xmlns="http://www.w3.org/2000/svg">
<style>
.cell { transition: all 0.2s ease; }
.cell:hover { stroke: #1b1f23; stroke-width: 1; }
text { font-family: Arial; }
</style>
<rect width="100%" height="100%" fill="#222222"/>
<text x="30" y="25" font-size="20" font-weight="bold" fill="#ffffff">2023</text>
<text x="540" y="25" font-size="16" fill="#ffffff">Total: 81 days, 490.43 km</text>
<text x="540" y="50" font-size="16" fill="#ffffff">Last Run: 2023/12/08, 3.93 km</text>
<text x="30" y="80" font-size="12" fill="#ffffff">Jan</text>
<text x="100" y="80" font-size="12" fill="#ffffff">Feb</text>
<text x="156" y="80" font-size="12" fill="#ffffff">Mar</text>
<text x="212" y="80" font-size="12" fill="#ffffff">Apr</text>
<text x="282" y="80" font-size="12" fill="#ffffff">May</text>
<text x="338" y="80" font-size="12" fill="#ffffff">Jun</text>
<text x="394" y="80" font-size="12" fill="#ffffff">Jul</text>
<text x="464" y="80" font-size="12" fill="#ffffff">Aug</text>
<text x="520" y="80" font-size="12" fill="#ffffff">Sep</text>
<text x="576" y="80" font-size="12" fill="#ffffff">Oct</text>
<text x="646" y="80" font-size="12" fill="#ffffff">Nov</text>
<text x="702" y="80" font-size="12" fill="#ffffff">Dec</text>
<rect class="cell" x="30" y="174" width="12" height="12" fill="#444444">
<title>2023-01-01: 0.00 km</title>
</rect>
<rect class="cell" x="44" y="90" width="12" height="12" fill="#444444">
<title>2023-01-02: 0.00 km</title>
</rect>
<rect class="cell" x="44" y="104" width="12" height="12" fill="#444444">
<title>2023-01-03: 0.00 km</title>
</rect>
<rect class="cell" x="44" y="118" width="12" height="12" fill="#444444">
<title>2023-01-04: 0.00 km</title>
</rect>
<rect class="cell" x="44" y="132" width="12" height="12" fill="#444444">
<title>2023-01-05: 0.00 km</title>
</rect>
<rect class="cell" x="44" y="146" width="12" height="12" fill="#444444">
<title>2023-01-06: 0.00 km</title>
</rect>
<rect class="cell" x="44" y="160" width="12" height="12" fill="#444444">
<title>2023-01-07: 0.00 km</title>
</rect>
<rect class="cell" x="44" y="174" width="12" height="12" fill="#444444">
<title>2023-01-08: 0.00 km</title>
</rect>
<rect class="cell" x="58" y="90" width="12" height="12" fill="#444444">
<title>2023-01-09: 0.00 km</title>
</rect>
<rect class="cell" x="58" y="104" width="12" height="12" fill="#444444">
<title>2023-01-10: 0.00 km</title>
</rect>
<rect class="cell" x="58" y="118" width="12" height="12" fill="#444444">
<title>2023-01-11: 0.00 km</title>
</rect>
<rect class="cell" x="58" y="132" width="12" height="12" fill="#444444">
<title>2023-01-12: 0.00 km</title>
</rect>
<rect class="cell" x="58" y="146" width="12" height="12" fill="#444444">
<title>2023-01-13: 0.00 km</title>
</rect>
<rect class="cell" x="58" y="160" width="12" height="12" fill="#444444">
<title>2023-01-14: 0.00 km</title>
</rect>
<rect class="cell" x="58" y="174" width="12" height="12" fill="#444444">
<title>2023-01-15: 0.00 km</title>
</rect>
<rect class="cell" x="72" y="90" width="12" height="12" fill="#444444">
<title>2023-01-16: 0.00 km</title>
</rect>
<rect class="cell" x="72" y="104" width="12" height="12" fill="#444444">
<title>2023-01-17: 0.00 km</title>
</rect>
<rect class="cell" x="72" y="118" width="12" height="12" fill="#444444">
<title>2023-01-18: 0.00 km</title>
</rect>
<rect class="cell" x="72" y="132" width="12" height="12" fill="#444444">
<title>2023-01-19: 0.00 km</title>
</rect>
<rect class="cell" x="72" y="146" width="12" height="12" fill="#444444">
<title>2023-01-20: 0.00 km</title>
</rect>
<rect class="cell" x="72" y="160" width="12" height="12" fill="#444444">
<title>2023-01-21: 0.00 km</title>
</rect>
<rect class="cell" x="72" y="174" width="12" height="12" fill="#444444">
<title>2023-01-22: 0.00 km</title>
</rect>
<rect class="cell" x="86" y="90" width="12" height="12" fill="#444444">
<title>2023-01-23: 0.00 km</title>
</rect>
<rect class="cell" x="86" y="104" width="12" height="12" fill="#444444">
<title>2023-01-24: 0.00 km</title>
</rect>
<rect class="cell" x="86" y="118" width="12" height="12" fill="#444444">
<title>2023-01-25: 0.00 km</title>
</rect>
<rect class="cell" x="86" y="132" width="12" height="12" fill="#444444">
<title>2023-01-26: 0.00 km</title>
</rect>
<rect class="cell" x="86" y="146" width="12" height="12" fill="#444444">
<title>2023-01-27: 0.00 km</title>
</rect>
<rect class="cell" x="86" y="160" width="12" height="12" fill="#444444">
<title>2023-01-28: 0.00 km</title>
</rect>
<rect class="cell" x="86" y="174" width="12" height="12" fill="#444444">
<title>2023-01-29: 0.00 km</title>
</rect>
<rect class="cell" x="100" y="90" width="12" height="12" fill="#444444">
<title>2023-01-30: 0.00 km</title>
</rect>
<rect class="cell" x="100" y="104" width="12" height="12" fill="#444444">
<title>2023-01-31: 0.00 km</title>
</rect>
<rect class="cell" x="100" y="118" width="12" height="12" fill="#444444">
<title>2023-02-01: 0.00 km</title>
</rect>
<rect class="cell" x="100" y="132" width="12" height="12" fill="#444444">
<title>2023-02-02: 0.00 km</title>
</rect>
<rect class="cell" x="100" y="146" width="12" height="12" fill="#444444">
<title>2023-02-03: 0.00 km</title>
</rect>
<rect class="cell" x="100" y="160" width="12" height="12" fill="#444444">
<title>2023-02-04: 0.00 km</title>
</rect>
<rect class="cell" x="100" y="174" width="12" height="12" fill="#444444">
<title>2023-02-05: 0.00 km</title>
</rect>
<rect class="cell" x="114" y="90" width="12" height="12" fill="#444444">
<title>2023-02-06: 0.00 km</title>
</rect>
<rect class="cell" x="114" y="104" width="12" height="12" fill="#444444">
<title>2023-02-07: 0.00 km</title>
</rect>
<rect class="cell" x="114" y="118" width="12" height="12" fill="#444444">
<title>2023-02-08: 0.00 km</title>
</rect>
<rect class="cell" x="114" y="132" width="12" height="12" fill="#444444">
<title>2023-02-09: 0.00 km</title>
</rect>
<rect class="cell" x="114" y="146" width="12" height="12" fill="#444444">
<title>2023-02-10: 0.00 km</title>
</rect>
<rect class="cell" x="114" y="160" width="12" height="12" fill="#444444">
<title>2023-02-11: 0.00 km</title>
</rect>
<rect class="cell" x="114" y="174" width="12" height="12" fill="#444444">
<title>2023-02-12: 0.00 km</title>
</rect>
<rect class="cell" x="128" y="90" width="12" height="12" fill="#444444">
<title>2023-02-13: 0.00 km</title>
</rect>
<rect class="cell" x="128" y="104" width="12" height="12" fill="#444444">
<title>2023-02-14: 0.00 km</title>
</rect>
<rect class="cell" x="128" y="118" width="12" height="12" fill="#444444">
<title>2023-02-15: 0.00 km</title>
</rect>
<rect class="cell" x="128" y="132" width="12" height="12" fill="#444444">
<title>2023-02-16: 0.00 km</title>
</rect>
<rect class="cell" x="128" y="146" width="12" height="12" fill="#444444">
<title>2023-02-17: 0.00 km</title>
</rect>
<rect class="cell" x="128" y="160" width="12" height="12" fill="#444444">
<title>2023-02-18: 0.00 km</title>
</rect>
<rect class="cell" x="128" y="174" width="12" height="12" fill="#444444">
<title>2023-02-19: 0.00 km</title>
</rect>
<rect class="cell" x="142" y="90" width="12" height="12" fill="#444444">
<title>2023-02-20: 0.00 km</title>
</rect>
<rect class="cell" x="142" y="104" width="12" height="12" fill="#444444">
<title>2023-02-21: 0.00 km</title>
</rect>
<rect class="cell" x="142" y="118" width="12" height="12" fill="#444444">
<title>2023-02-22: 0.00 km</title>
</rect>
<rect class="cell" x="142" y="132" width="12" height="12" fill="#444444">
<title>2023-02-23: 0.00 km</title>
</rect>
<rect class="cell" x="142" y="146" width="12" height="12" fill="#444444">
<title>2023-02-24: 0.00 km</title>
</rect>
<rect class="cell" x="142" y="160" width="12" height="12" fill="#444444">
<title>2023-02-25: 0.00 km</title>
</rect>
<rect class="cell" x="142" y="174" width="12" height="12" fill="#444444">
<title>2023-02-26: 0.00 km</title>
</rect>
<rect class="cell" x="156" y="90" width="12" height="12" fill="#444444">
<title>2023-02-27: 0.00 km</title>
</rect>
<rect class="cell" x="156" y="104" width="12" height="12" fill="#444444">
<title>2023-02-28: 0.00 km</title>
</rect>
<rect class="cell" x="156" y="118" width="12" height="12" fill="#444444">
<title>2023-03-01: 0.00 km</title>
</rect>
<rect class="cell" x="156" y="132" width="12" height="12" fill="#444444">
<title>2023-03-02: 0.00 km</title>
</rect>
<rect class="cell" x="156" y="146" width="12" height="12" fill="#444444">
<title>2023-03-03: 0.00 km</title>
</rect>
<rect class="cell" x="156" y="160" width="12" height="12" fill="#444444">
<title>2023-03-04: 0.00 km</title>
</rect>
<rect class="cell" x="156" y="174" width="12" height="12" fill="#444444">
<title>2023-03-05: 0.00 km</title>
</rect>
<rect class="cell" x="170" y="90" width="12" height="12" fill="#444444">
<title>2023-03-06: 0.00 km</title>
</rect>
<rect class="cell" x="170" y="104" width="12" height="12" fill="#444444">
<title>2023-03-07: 0.00 km</title>
</rect>
<rect class="cell" x="170" y="118" width="12" height="12" fill="#444444">
<title>2023-03-08: 0.00 km</title>
</rect>
<rect class="cell" x="170" y="132" width="12" height="12" fill="#444444">
<title>2023-03-09: 0.00 km</title>
</rect>
<rect class="cell" x="170" y="146" width="12" height="12" fill="#444444">
<title>2023-03-10: 0.00 km</title>
</rect>
<rect class="cell" x="170" y="160" width="12" height="12" fill="#444444">
<title>2023-03-11: 0.00 km</title>
</rect>
<rect class="cell" x="170" y="174" width="12" height="12" fill="#444444">
<title>2023-03-12: 0.00 km</title>
</rect>
<rect class="cell" x="184" y="90" width="12" height="12" fill="#444444">
<title>2023-03-13: 0.00 km</title>
</rect>
<rect class="cell" x="184" y="104" width="12" height="12" fill="#444444">
<title>2023-03-14: 0.00 km</title>
</rect>
<rect class="cell" x="184" y="118" width="12" height="12" fill="#444444">
<title>2023-03-15: 0.00 km</title>
</rect>
<rect class="cell" x="184" y="132" width="12" height="12" fill="#444444">
<title>2023-03-16: 0.00 km</title>
</rect>
<rect class="cell" x="184" y="146" width="12" height="12" fill="#444444">
<title>2023-03-17: 0.00 km</title>
</rect>
<rect class="cell" x="184" y="160" width="12" height="12" fill="#444444">
<title>2023-03-18: 0.00 km</title>
</rect>
<rect class="cell" x="184" y="174" width="12" height="12" fill="#444444">
<title>2023-03-19: 0.00 km</title>
</rect>
<rect class="cell" x="198" y="90" width="12" height="12" fill="#444444">
<title>2023-03-20: 0.00 km</title>
</rect>
<rect class="cell" x="198" y="104" width="12" height="12" fill="#444444">
<title>2023-03-21: 0.00 km</title>
</rect>
<rect class="cell" x="198" y="118" width="12" height="12" fill="#444444">
<title>2023-03-22: 0.00 km</title>
</rect>
<rect class="cell" x="198" y="132" width="12" height="12" fill="#444444">
<title>2023-03-23: 0.00 km</title>
</rect>
<rect class="cell" x="198" y="146" width="12" height="12" fill="#444444">
<title>2023-03-24: 0.00 km</title>
</rect>
<rect class="cell" x="198" y="160" width="12" height="12" fill="#444444">
<title>2023-03-25: 0.00 km</title>
</rect>
<rect class="cell" x="198" y="174" width="12" height="12" fill="#444444">
<title>2023-03-26: 0.00 km</title>
</rect>
<rect class="cell" x="212" y="90" width="12" height="12" fill="#444444">
<title>2023-03-27: 0.00 km</title>
</rect>
<rect class="cell" x="212" y="104" width="12" height="12" fill="#444444">
<title>2023-03-28: 0.00 km</title>
</rect>
<rect class="cell" x="212" y="118" width="12" height="12" fill="#444444">
<title>2023-03-29: 0.00 km</title>
</rect>
<rect class="cell" x="212" y="132" width="12" height="12" fill="#444444">
<title>2023-03-30: 0.00 km</title>
</rect>
<rect class="cell" x="212" y="146" width="12" height="12" fill="#444444">
<title>2023-03-31: 0.00 km</title>
</rect>
<rect class="cell" x="212" y="160" width="12" height="12" fill="#444444">
<title>2023-04-01: 0.00 km</title>
</rect>
<rect class="cell" x="212" y="174" width="12" height="12" fill="#444444">
<title>2023-04-02: 0.00 km</title>
</rect>
<rect class="cell" x="226" y="90" width="12" height="12" fill="#444444">
<title>2023-04-03: 0.00 km</title>
</rect>
<rect class="cell" x="226" y="104" width="12" height="12" fill="#444444">
<title>2023-04-04: 0.00 km</title>
</rect>
<rect class="cell" x="226" y="118" width="12" height="12" fill="#444444">
<title>2023-04-05: 0.00 km</title>
</rect>
<rect class="cell" x="226" y="132" width="12" height="12" fill="#444444">
<title>2023-04-06: 0.00 km</title>
</rect>
<rect class="cell" x="226" y="146" width="12" height="12" fill="#444444">
<title>2023-04-07: 0.00 km</title>
</rect>
<rect class="cell" x="226" y="160" width="12" height="12" fill="#444444">
<title>2023-04-08: 0.00 km</title>
</rect>
<rect class="cell" x="226" y="174" width="12" height="12" fill="#444444">
<title>2023-04-09: 0.00 km</title>
</rect>
<rect class="cell" x="240" y="90" width="12" height="12" fill="#444444">
<title>2023-04-10: 0.00 km</title>
</rect>
<rect class="cell" x="240" y="104" width="12" height="12" fill="#444444">
<title>2023-04-11: 0.00 km</title>
</rect>
<rect class="cell" x="240" y="118" width="12" height="12" fill="#444444">
<title>2023-04-12: 0.00 km</title>
</rect>
<rect class="cell" x="240" y="132" width="12" height="12" fill="#444444">
<title>2023-04-13: 0.00 km</title>
</rect>
<rect class="cell" x="240" y="146" width="12" height="12" fill="#444444">
<title>2023-04-14: 0.00 km</title>
</rect>
<rect class="cell" x="240" y="160" width="12" height="12" fill="#444444">
<title>2023-04-15: 0.00 km</title>
</rect>
<rect class="cell" x="240" y="174" width="12" height="12" fill="#444444">
<title>2023-04-16: 0.00 km</title>
</rect>
<rect class="cell" x="254" y="90" width="12" height="12" fill="#444444">
<title>2023-04-17: 0.00 km</title>
</rect>
<rect class="cell" x="254" y="104" width="12" height="12" fill="#444444">
<title>2023-04-18: 0.00 km</title>
</rect>
<rect class="cell" x="254" y="118" width="12" height="12" fill="#444444">
<title>2023-04-19: 0.00 km</title>
</rect>
<rect class="cell" x="254" y="132" width="12" height="12" fill="#444444">
<title>2023-04-20: 0.00 km</title>
</rect>
<rect class="cell" x="254" y="146" width="12" height="12" fill="#444444">
<title>2023-04-21: 0.00 km</title>
</rect>
<rect class="cell" x="254" y="160" width="12" height="12" fill="#444444">
<title>2023-04-22: 0.00 km</title>
</rect>
<rect class="cell" x="254" y="174" width="12" height="12" fill="#444444">
<title>2023-04-23: 0.00 km</title>
</rect>
<rect class="cell" x="268" y="90" width="12" height="12" fill="#444444">
<title>2023-04-24: 0.00 km</title>
</rect>
<rect class="cell" x="268" y="104" width="12" height="12" fill="#444444">
<title>2023-04-25: 0.00 km</title>
</rect>
<rect class="cell" x="268" y="118" width="12" height="12" fill="#444444">
<title>2023-04-26: 0.00 km</title>
</rect>
<rect class="cell" x="268" y="132" width="12" height="12" fill="#444444">
<title>2023-04-27: 0.00 km</title>
</rect>
<rect class="cell" x="268" y="146" width="12" height="12" fill="#444444">
<title>2023-04-28: 0.00 km</title>
</rect>
<rect class="cell" x="268" y="160" width="12" height="12" fill="#444444">
<title>2023-04-29: 0.00 km</title>
</rect>
<rect class="cell" x="268" y="174" width="12" height="12" fill="#444444">
<title>2023-04-30: 0.00 km</title>
</rect>
<rect class="cell" x="282" y="90" width="12" height="12" fill="#444444">
<title>2023-05-01: 0.00 km</title>
</rect>
<rect class="cell" x="282" y="104" width="12" height="12" fill="#444444">
<title>2023-05-02: 0.00 km</title>
</rect>
<rect class="cell" x="282" y="118" width="12" height="12" fill="#444444">
<title>2023-05-03: 0.00 km</title>
</rect>
<rect class="cell" x="282" y="132" width="12" height="12" fill="#444444">
<title>2023-05-04: 0.00 km</title>
</rect>
<rect class="cell" x="282" y="146" width="12" height="12" fill="#444444">
<title>2023-05-05: 0.00 km</title>
</rect>
<rect class="cell" x="282" y="160" width="12" height="12" fill="#444444">
<title>2023-05-06: 0.00 km</title>
</rect>
<rect class="cell" x="282" y="174" width="12" height="12" fill="#444444">
<title>2023-05-07: 0.00 km</title>
</rect>
<rect class="cell" x="296" y="90" width="12" height="12" fill="#444444">
<title>2023-05-08: 0.00 km</title>
</rect>
<rect class="cell" x="296" y="104" width="12" height="12" fill="#444444">
<title>2023-05-09: 0.00 km</title>
</rect>
<rect class="cell" x="296" y="118" width="12" height="12" fill="#444444">
<title>2023-05-10: 0.00 km</title>
</rect>
<rect class="cell" x="296" y="132" width="12" height="12" fill="#444444">
<title>2023-05-11: 0.00 km</title>
</rect>
<rect class="cell" x="296" y="146" width="12" height="12" fill="#444444">
<title>2023-05-12: 0.00 km</title>
</rect>
<rect class="cell" x="296" y="160" width="12" height="12" fill="#444444">
<title>2023-05-13: 0.00 km</title>
</rect>
<rect class="cell" x="296" y="174" width="12" height="12" fill="#444444">
<title>2023-05-14: 0.00 km</title>
</rect>
<rect class="cell" x="310" y="90" width="12" height="12" fill="#444444">
<title>2023-05-15: 0.00 km</title>
</rect>
<rect class="cell" x="310" y="104" width="12" height="12" fill="#444444">
<title>2023-05-16: 0.00 km</title>
</rect>
<rect class="cell" x="310" y="118" width="12" height="12" fill="#444444">
<title>2023-05-17: 0.00 km</title>
</rect>
<rect class="cell" x="310" y="132" width="12" height="12" fill="#444444">
<title>2023-05-18: 0.00 km</title>
</rect>
<rect class="cell" x="310" y="146" width="12" height="12" fill="#FF7000">
<title>2023-05-19: 5.73 km</title>
</rect>
<rect class="cell" x="310" y="160" width="12" height="12" fill="#FF6100">
<title>2023-05-20: 6.26 km</title>
</rect>
<rect class="cell" x="310" y="174" width="12" height="12" fill="#FF9D00">
<title>2023-05-21: 4.08 km</title>
</rect>
<rect class="cell" x="324" y="90" width="12" height="12" fill="#444444">
<title>2023-05-22: 0.00 km</title>
</rect>
<rect class="cell" x="324" y="104" width="12" height="12" fill="#FF5900">
<title>2023-05-23: 6.58 km</title>
</rect>
<rect class="cell" x="324" y="118" width="12" height="12" fill="#444444">
<title>2023-05-24: 0.00 km</title>
</rect>
<rect class="cell" x="324" y="132" width="12" height="12" fill="#444444">
<title>2023-05-25: 0.00 km</title>
</rect>
<rect class="cell" x="324" y="146" width="12" height="12" fill="#444444">
<title>2023-05-26: 0.00 km</title>
</rect>
<rect class="cell" x="324" y="160" width="12" height="12" fill="#444444">
<title>2023-05-27: 0.00 km</title>
</rect>
<rect class="cell" x="324" y="174" width="12" height="12" fill="#444444">
<title>2023-05-28: 0.00 km</title>
</rect>
<rect class="cell" x="338" y="90" width="12" height="12" fill="#FF5900">
<title>2023-05-29: 6.55 km</title>
</rect>
<rect class="cell" x="338" y="104" width="12" height="12" fill="#FF5900">
<title>2023-05-30: 6.55 km</title>
</rect>
<rect class="cell" x="338" y="118" width="12" height="12" fill="#FF5A00">
<title>2023-05-31: 6.53 km</title>
</rect>
<rect class="cell" x="338" y="132" width="12" height="12" fill="#FF5900">
<title>2023-06-01: 6.57 km</title>
</rect>
<rect class="cell" x="338" y="146" width="12" height="12" fill="#FF5B00">
<title>2023-06-02: 6.51 km</title>
</rect>
<rect class="cell" x="338" y="160" width="12" height="12" fill="#444444">
<title>2023-06-03: 0.00 km</title>
</rect>
<rect class="cell" x="338" y="174" width="12" height="12" fill="#444444">
<title>2023-06-04: 0.00 km</title>
</rect>
<rect class="cell" x="352" y="90" width="12" height="12" fill="#FF5B00">
<title>2023-06-05: 6.50 km</title>
</rect>
<rect class="cell" x="352" y="104" width="12" height="12" fill="#FF5700">
<title>2023-06-06: 6.65 km</title>
</rect>
<rect class="cell" x="352" y="118" width="12" height="12" fill="#FF5700">
<title>2023-06-07: 6.63 km</title>
</rect>
<rect class="cell" x="352" y="132" width="12" height="12" fill="#FF5900">
<title>2023-06-08: 6.57 km</title>
</rect>
<rect class="cell" x="352" y="146" width="12" height="12" fill="#FF6400">
<title>2023-06-09: 6.17 km</title>
</rect>
<rect class="cell" x="352" y="160" width="12" height="12" fill="#444444">
<title>2023-06-10: 0.00 km</title>
</rect>
<rect class="cell" x="352" y="174" width="12" height="12" fill="#444444">
<title>2023-06-11: 0.00 km</title>
</rect>
<rect class="cell" x="366" y="90" width="12" height="12" fill="#FF5E00">
<title>2023-06-12: 6.38 km</title>
</rect>
<rect class="cell" x="366" y="104" width="12" height="12" fill="#FF5400">
<title>2023-06-13: 6.76 km</title>
</rect>
<rect class="cell" x="366" y="118" width="12" height="12" fill="#FF5200">
<title>2023-06-14: 6.84 km</title>
</rect>
<rect class="cell" x="366" y="132" width="12" height="12" fill="#FF5B00">
<title>2023-06-15: 6.48 km</title>
</rect>
<rect class="cell" x="366" y="146" width="12" height="12" fill="#FFF100">
<title>2023-06-16: 1.34 km</title>
</rect>
<rect class="cell" x="366" y="160" width="12" height="12" fill="#444444">
<title>2023-06-17: 0.00 km</title>
</rect>
<rect class="cell" x="366" y="174" width="12" height="12" fill="#444444">
<title>2023-06-18: 0.00 km</title>
</rect>
<rect class="cell" x="380" y="90" width="12" height="12" fill="#FF5900">
<title>2023-06-19: 6.58 km</title>
</rect>
<rect class="cell" x="380" y="104" width="12" height="12" fill="#FF5900">
<title>2023-06-20: 6.56 km</title>
</rect>
<rect class="cell" x="380" y="118" width="12" height="12" fill="#FF5900">
<title>2023-06-21: 6.56 km</title>
</rect>
<rect class="cell" x="380" y="132" width="12" height="12" fill="#444444">
<title>2023-06-22: 0.00 km</title>
</rect>
<rect class="cell" x="380" y="146" width="12" height="12" fill="#444444">
<title>2023-06-23: 0.00 km</title>
</rect>
<rect class="cell" x="380" y="160" width="12" height="12" fill="#444444">
<title>2023-06-24: 0.00 km</title>
</rect>
<rect class="cell" x="380" y="174" width="12" height="12" fill="#FF5E00">
<title>2023-06-25: 6.37 km</title>
</rect>
<rect class="cell" x="394" y="90" width="12" height="12" fill="#FF5F00">
<title>2023-06-26: 6.34 km</title>
</rect>
<rect class="cell" x="394" y="104" width="12" height="12" fill="#444444">
<title>2023-06-27: 0.00 km</title>
</rect>
<rect class="cell" x="394" y="118" width="12" height="12" fill="#FF5200">
<title>2023-06-28: 6.83 km</title>
</rect>
<rect class="cell" x="394" y="132" width="12" height="12" fill="#FF5E00">
<title>2023-06-29: 6.37 km</title>
</rect>
<rect class="cell" x="394" y="146" width="12" height="12" fill="#FF5A00">
<title>2023-06-30: 6.53 km</title>
</rect>
<rect class="cell" x="394" y="160" width="12" height="12" fill="#444444">
<title>2023-07-01: 0.00 km</title>
</rect>
<rect class="cell" x="394" y="174" width="12" height="12" fill="#444444">
<title>2023-07-02: 0.00 km</title>
</rect>
<rect class="cell" x="408" y="90" width="12" height="12" fill="#444444">
<title>2023-07-03: 0.00 km</title>
</rect>
<rect class="cell" x="408" y="104" width="12" height="12" fill="#FF5A00">
<title>2023-07-04: 6.53 km</title>
</rect>
<rect class="cell" x="408" y="118" width="12" height="12" fill="#FF5900">
<title>2023-07-05: 6.57 km</title>
</rect>
<rect class="cell" x="408" y="132" width="12" height="12" fill="#FFD400">
<title>2023-07-06: 2.23 km</title>
</rect>
<rect class="cell" x="408" y="146" width="12" height="12" fill="#FF5900">
<title>2023-07-07: 6.58 km</title>
</rect>
<rect class="cell" x="408" y="160" width="12" height="12" fill="#FF5A00">
<title>2023-07-08: 6.54 km</title>
</rect>
<rect class="cell" x="408" y="174" width="12" height="12" fill="#444444">
<title>2023-07-09: 0.00 km</title>
</rect>
<rect class="cell" x="422" y="90" width="12" height="12" fill="#FF5900">
<title>2023-07-10: 6.56 km</title>
</rect>
<rect class="cell" x="422" y="104" width="12" height="12" fill="#FF5A00">
<title>2023-07-11: 6.54 km</title>
</rect>
<rect class="cell" x="422" y="118" width="12" height="12" fill="#444444">
<title>2023-07-12: 0.00 km</title>
</rect>
<rect class="cell" x="422" y="132" width="12" height="12" fill="#FF5800">
<title>2023-07-13: 6.60 km</title>
</rect>
<rect class="cell" x="422" y="146" width="12" height="12" fill="#FF5800">
<title>2023-07-14: 6.59 km</title>
</rect>
<rect class="cell" x="422" y="160" width="12" height="12" fill="#444444">
<title>2023-07-15: 0.00 km</title>
</rect>
<rect class="cell" x="422" y="174" width="12" height="12" fill="#444444">
<title>2023-07-16: 0.00 km</title>
</rect>
<rect class="cell" x="436" y="90" width="12" height="12" fill="#FF5C00">
<title>2023-07-17: 6.47 km</title>
</rect>
<rect class="cell" x="436" y="104" width="12" height="12" fill="#FF5900">
<title>2023-07-18: 6.56 km</title>
</rect>
<rect class="cell" x="436" y="118" width="12" height="12" fill="#444444">
<title>2023-07-19: 0.00 km</title>
</rect>
<rect class="cell" x="436" y="132" width="12" height="12" fill="#FF5800">
<title>2023-07-20: 6.62 km</title>
</rect>
<rect class="cell" x="436" y="146" width="12" height="12" fill="#444444">
<title>2023-07-21: 0.00 km</title>
</rect>
<rect class="cell" x="436" y="160" width="12" height="12" fill="#444444">
<title>2023-07-22: 0.00 km</title>
</rect>
<rect class="cell" x="436" y="174" width="12" height="12" fill="#444444">
<title>2023-07-23: 0.00 km</title>
</rect>
<rect class="cell" x="450" y="90" width="12" height="12" fill="#FF5D00">
<title>2023-07-24: 6.43 km</title>
</rect>
<rect class="cell" x="450" y="104" width="12" height="12" fill="#FF5900">
<title>2023-07-25: 6.57 km</title>
</rect>
<rect class="cell" x="450" y="118" width="12" height="12" fill="#444444">
<title>2023-07-26: 0.00 km</title>
</rect>
<rect class="cell" x="450" y="132" width="12" height="12" fill="#FF5A00">
<title>2023-07-27: 6.52 km</title>
</rect>
<rect class="cell" x="450" y="146" width="12" height="12" fill="#444444">
<title>2023-07-28: 0.00 km</title>
</rect>
<rect class="cell" x="450" y="160" width="12" height="12" fill="#444444">
<title>2023-07-29: 0.00 km</title>
</rect>
<rect class="cell" x="450" y="174" width="12" height="12" fill="#444444">
<title>2023-07-30: 0.00 km</title>
</rect>
<rect class="cell" x="464" y="90" width="12" height="12" fill="#FF5900">
<title>2023-07-31: 6.57 km</title>
</rect>
<rect class="cell" x="464" y="104" width="12" height="12" fill="#444444">
<title>2023-08-01: 0.00 km</title>
</rect>
<rect class="cell" x="464" y="118" width="12" height="12" fill="#FF5F00">
<title>2023-08-02: 6.36 km</title>
</rect>
<rect class="cell" x="464" y="132" width="12" height="12" fill="#444444">
<title>2023-08-03: 0.00 km</title>
</rect>
<rect class="cell" x="464" y="146" width="12" height="12" fill="#FF5C00">
<title>2023-08-04: 6.47 km</title>
</rect>
<rect class="cell" x="464" y="160" width="12" height="12" fill="#444444">
<title>2023-08-05: 0.00 km</title>
</rect>
<rect class="cell" x="464" y="174" width="12" height="12" fill="#444444">
<title>2023-08-06: 0.00 km</title>
</rect>
<rect class="cell" x="478" y="90" width="12" height="12" fill="#FF5A00">
<title>2023-08-07: 6.52 km</title>
</rect>
<rect class="cell" x="478" y="104" width="12" height="12" fill="#444444">
<title>2023-08-08: 0.00 km</title>
</rect>
<rect class="cell" x="478" y="118" width="12" height="12" fill="#FF5B00">
<title>2023-08-09: 6.51 km</title>
</rect>
<rect class="cell" x="478" y="132" width="12" height="12" fill="#444444">
<title>2023-08-10: 0.00 km</title>
</rect>
<rect class="cell" x="478" y="146" width="12" height="12" fill="#FF5B00">
<title>2023-08-11: 6.48 km</title>
</rect>
<rect class="cell" x="478" y="160" width="12" height="12" fill="#444444">
<title>2023-08-12: 0.00 km</title>
</rect>
<rect class="cell" x="478" y="174" width="12" height="12" fill="#444444">
<title>2023-08-13: 0.00 km</title>
</rect>
<rect class="cell" x="492" y="90" width="12" height="12" fill="#FF5900">
<title>2023-08-14: 6.56 km</title>
</rect>
<rect class="cell" x="492" y="104" width="12" height="12" fill="#444444">
<title>2023-08-15: 0.00 km</title>
</rect>
<rect class="cell" x="492" y="118" width="12" height="12" fill="#FF5A00">
<title>2023-08-16: 6.54 km</title>
</rect>
<rect class="cell" x="492" y="132" width="12" height="12" fill="#444444">
<title>2023-08-17: 0.00 km</title>
</rect>
<rect class="cell" x="492" y="146" width="12" height="12" fill="#FF5C00">
<title>2023-08-18: 6.47 km</title>
</rect>
<rect class="cell" x="492" y="160" width="12" height="12" fill="#444444">
<title>2023-08-19: 0.00 km</title>
</rect>
<rect class="cell" x="492" y="174" width="12" height="12" fill="#444444">
<title>2023-08-20: 0.00 km</title>
</rect>
<rect class="cell" x="506" y="90" width="12" height="12" fill="#FF5900">
<title>2023-08-21: 6.56 km</title>
</rect>
<rect class="cell" x="506" y="104" width="12" height="12" fill="#444444">
<title>2023-08-22: 0.00 km</title>
</rect>
<rect class="cell" x="506" y="118" width="12" height="12" fill="#FF5C00">
<title>2023-08-23: 6.45 km</title>
</rect>
<rect class="cell" x="506" y="132" width="12" height="12" fill="#444444">
<title>2023-08-24: 0.00 km</title>
</rect>
<rect class="cell" x="506" y="146" width="12" height="12" fill="#FF5900">
<title>2023-08-25: 6.55 km</title>
</rect>
<rect class="cell" x="506" y="160" width="12" height="12" fill="#444444">
<title>2023-08-26: 0.00 km</title>
</rect>
<rect class="cell" x="506" y="174" width="12" height="12" fill="#444444">
<title>2023-08-27: 0.00 km</title>
</rect>
<rect class="cell" x="520" y="90" width="12" height="12" fill="#FF5900">
<title>2023-08-28: 6.56 km</title>
</rect>
<rect class="cell" x="520" y="104" width="12" height="12" fill="#444444">
<title>2023-08-29: 0.00 km</title>
</rect>
<rect class="cell" x="520" y="118" width="12" height="12" fill="#FF7E00">
<title>2023-08-30: 5.19 km</title>
</rect>
<rect class="cell" x="520" y="132" width="12" height="12" fill="#444444">
<title>2023-08-31: 0.00 km</title>
</rect>
<rect class="cell" x="520" y="146" width="12" height="12" fill="#FF8000">
<title>2023-09-01: 5.12 km</title>
</rect>
<rect class="cell" x="520" y="160" width="12" height="12" fill="#444444">
<title>2023-09-02: 0.00 km</title>
</rect>
<rect class="cell" x="520" y="174" width="12" height="12" fill="#444444">
<title>2023-09-03: 0.00 km</title>
</rect>
<rect class="cell" x="534" y="90" width="12" height="12" fill="#444444">
<title>2023-09-04: 0.00 km</title>
</rect>
<rect class="cell" x="534" y="104" width="12" height="12" fill="#444444">
<title>2023-09-05: 0.00 km</title>
</rect>
<rect class="cell" x="534" y="118" width="12" height="12" fill="#FF7D00">
<title>2023-09-06: 5.23 km</title>
</rect>
<rect class="cell" x="534" y="132" width="12" height="12" fill="#444444">
<title>2023-09-07: 0.00 km</title>
</rect>
<rect class="cell" x="534" y="146" width="12" height="12" fill="#FF8200">
<title>2023-09-08: 5.06 km</title>
</rect>
<rect class="cell" x="534" y="160" width="12" height="12" fill="#444444">
<title>2023-09-09: 0.00 km</title>
</rect>
<rect class="cell" x="534" y="174" width="12" height="12" fill="#444444">
<title>2023-09-10: 0.00 km</title>
</rect>
<rect class="cell" x="548" y="90" width="12" height="12" fill="#444444">
<title>2023-09-11: 0.00 km</title>
</rect>
<rect class="cell" x="548" y="104" width="12" height="12" fill="#444444">
<title>2023-09-12: 0.00 km</title>
</rect>
<rect class="cell" x="548" y="118" width="12" height="12" fill="#444444">
<title>2023-09-13: 0.00 km</title>
</rect>
<rect class="cell" x="548" y="132" width="12" height="12" fill="#FFCA00">
<title>2023-09-14: 2.57 km</title>
</rect>
<rect class="cell" x="548" y="146" width="12" height="12" fill="#444444">
<title>2023-09-15: 0.00 km</title>
</rect>
<rect class="cell" x="548" y="160" width="12" height="12" fill="#444444">
<title>2023-09-16: 0.00 km</title>
</rect>
<rect class="cell" x="548" y="174" width="12" height="12" fill="#444444">
<title>2023-09-17: 0.00 km</title>
</rect>
<rect class="cell" x="562" y="90" width="12" height="12" fill="#444444">
<title>2023-09-18: 0.00 km</title>
</rect>
<rect class="cell" x="562" y="104" width="12" height="12" fill="#444444">
<title>2023-09-19: 0.00 km</title>
</rect>
<rect class="cell" x="562" y="118" width="12" height="12" fill="#444444">
<title>2023-09-20: 0.00 km</title>
</rect>
<rect class="cell" x="562" y="132" width="12" height="12" fill="#444444">
<title>2023-09-21: 0.00 km</title>
</rect>
<rect class="cell" x="562" y="146" width="12" height="12" fill="#444444">
<title>2023-09-22: 0.00 km</title>
</rect>
<rect class="cell" x="562" y="160" width="12" height="12" fill="#444444">
<title>2023-09-23: 0.00 km</title>
</rect>
<rect class="cell" x="562" y="174" width="12" height="12" fill="#444444">
<title>2023-09-24: 0.00 km</title>
</rect>
<rect class="cell" x="576" y="90" width="12" height="12" fill="#FF5B00">
<title>2023-09-25: 6.48 km</title>
</rect>
<rect class="cell" x="576" y="104" width="12" height="12" fill="#FF5C00">
<title>2023-09-26: 6.47 km</title>
</rect>
<rect class="cell" x="576" y="118" width="12" height="12" fill="#FF5800">
<title>2023-09-27: 6.62 km</title>
</rect>
<rect class="cell" x="576" y="132" width="12" height="12" fill="#FF6F00">
<title>2023-09-28: 5.75 km</title>
</rect>
<rect class="cell" x="576" y="146" width="12" height="12" fill="#444444">
<title>2023-09-29: 0.00 km</title>
</rect>
<rect class="cell" x="576" y="160" width="12" height="12" fill="#FFE200">
<title>2023-09-30: 1.80 km</title>
</rect>
<rect class="cell" x="576" y="174" width="12" height="12" fill="#444444">
<title>2023-10-01: 0.00 km</title>
</rect>
<rect class="cell" x="590" y="90" width="12" height="12" fill="#444444">
<title>2023-10-02: 0.00 km</title>
</rect>
<rect class="cell" x="590" y="104" width="12" height="12" fill="#444444">
<title>2023-10-03: 0.00 km</title>
</rect>
<rect class="cell" x="590" y="118" width="12" height="12" fill="#444444">
<title>2023-10-04: 0.00 km</title>
</rect>
<rect class="cell" x="590" y="132" width="12" height="12" fill="#FFB000">
<title>2023-10-05: 3.42 km</title>
</rect>
<rect class="cell" x="590" y="146" width="12" height="12" fill="#444444">
<title>2023-10-06: 0.00 km</title>
</rect>
<rect class="cell" x="590" y="160" width="12" height="12" fill="#444444">
<title>2023-10-07: 0.00 km</title>
</rect>
<rect class="cell" x="590" y="174" width="12" height="12" fill="#444444">
<title>2023-10-08: 0.00 km</title>
</rect>
<rect class="cell" x="604" y="90" width="12" height="12" fill="#FF6200">
<title>2023-10-09: 6.23 km</title>
</rect>
<rect class="cell" x="604" y="104" width="12" height="12" fill="#444444">
<title>2023-10-10: 0.00 km</title>
</rect>
<rect class="cell" x="604" y="118" width="12" height="12" fill="#FF5B00">
<title>2023-10-11: 6.51 km</title>
</rect>
<rect class="cell" x="604" y="132" width="12" height="12" fill="#444444">
<title>2023-10-12: 0.00 km</title>
</rect>
<rect class="cell" x="604" y="146" width="12" height="12" fill="#FF5B00">
<title>2023-10-13: 6.49 km</title>
</rect>
<rect class="cell" x="604" y="160" width="12" height="12" fill="#444444">
<title>2023-10-14: 0.00 km</title>
</rect>
<rect class="cell" x="604" y="174" width="12" height="12" fill="#444444">
<title>2023-10-15: 0.00 km</title>
</rect>
<rect class="cell" x="618" y="90" width="12" height="12" fill="#FF5A00">
<title>2023-10-16: 6.52 km</title>
</rect>
<rect class="cell" x="618" y="104" width="12" height="12" fill="#444444">
<title>2023-10-17: 0.00 km</title>
</rect>
<rect class="cell" x="618" y="118" width="12" height="12" fill="#FF5A00">
<title>2023-10-18: 6.54 km</title>
</rect>
<rect class="cell" x="618" y="132" width="12" height="12" fill="#444444">
<title>2023-10-19: 0.00 km</title>
</rect>
<rect class="cell" x="618" y="146" width="12" height="12" fill="#FF5C00">
<title>2023-10-20: 6.47 km</title>
</rect>
<rect class="cell" x="618" y="160" width="12" height="12" fill="#444444">
<title>2023-10-21: 0.00 km</title>
</rect>
<rect class="cell" x="618" y="174" width="12" height="12" fill="#444444">
<title>2023-10-22: 0.00 km</title>
</rect>
<rect class="cell" x="632" y="90" width="12" height="12" fill="#FF5A00">
<title>2023-10-23: 6.54 km</title>
</rect>
<rect class="cell" x="632" y="104" width="12" height="12" fill="#444444">
<title>2023-10-24: 0.00 km</title>
</rect>
<rect class="cell" x="632" y="118" width="12" height="12" fill="#FF5B00">
<title>2023-10-25: 6.51 km</title>
</rect>
<rect class="cell" x="632" y="132" width="12" height="12" fill="#444444">
<title>2023-10-26: 0.00 km</title>
</rect>
<rect class="cell" x="632" y="146" width="12" height="12" fill="#FF5A00">
<title>2023-10-27: 6.53 km</title>
</rect>
<rect class="cell" x="632" y="160" width="12" height="12" fill="#444444">
<title>2023-10-28: 0.00 km</title>
</rect>
<rect class="cell" x="632" y="174" width="12" height="12" fill="#FFDB00">
<title>2023-10-29: 2.00 km</title>
</rect>
<rect class="cell" x="646" y="90" width="12" height="12" fill="#FF5A00">
<title>2023-10-30: 6.52 km</title>
</rect>
<rect class="cell" x="646" y="104" width="12" height="12" fill="#444444">
<title>2023-10-31: 0.00 km</title>
</rect>
<rect class="cell" x="646" y="118" width="12" height="12" fill="#FF5A00">
<title>2023-11-01: 6.53 km</title>
</rect>
<rect class="cell" x="646" y="132" width="12" height="12" fill="#444444">
<title>2023-11-02: 0.00 km</title>
</rect>
<rect class="cell" x="646" y="146" width="12" height="12" fill="#FF5A00">
<title>2023-11-03: 6.53 km</title>
</rect>
<rect class="cell" x="646" y="160" width="12" height="12" fill="#444444">
<title>2023-11-04: 0.00 km</title>
</rect>
<rect class="cell" x="646" y="174" width="12" height="12" fill="#444444">
<title>2023-11-05: 0.00 km</title>
</rect>
<rect class="cell" x="660" y="90" width="12" height="12" fill="#444444">
<title>2023-11-06: 0.00 km</title>
</rect>
<rect class="cell" x="660" y="104" width="12" height="12" fill="#444444">
<title>2023-11-07: 0.00 km</title>
</rect>
<rect class="cell" x="660" y="118" width="12" height="12" fill="#444444">
<title>2023-11-08: 0.00 km</title>
</rect>
<rect class="cell" x="660" y="132" width="12" height="12" fill="#444444">
<title>2023-11-09: 0.00 km</title>
</rect>
<rect class="cell" x="660" y="146" width="12" height="12" fill="#444444">
<title>2023-11-10: 0.00 km</title>
</rect>
<rect class="cell" x="660" y="160" width="12" height="12" fill="#444444">
<title>2023-11-11: 0.00 km</title>
</rect>
<rect class="cell" x="660" y="174" width="12" height="12" fill="#444444">
<title>2023-11-12: 0.00 km</title>
</rect>
<rect class="cell" x="674" y="90" width="12" height="12" fill="#444444">
<title>2023-11-13: 0.00 km</title>
</rect>
<rect class="cell" x="674" y="104" width="12" height="12" fill="#444444">
<title>2023-11-14: 0.00 km</title>
</rect>
<rect class="cell" x="674" y="118" width="12" height="12" fill="#444444">
<title>2023-11-15: 0.00 km</title>
</rect>
<rect class="cell" x="674" y="132" width="12" height="12" fill="#444444">
<title>2023-11-16: 0.00 km</title>
</rect>
<rect class="cell" x="674" y="146" width="12" height="12" fill="#FF5A00">
<title>2023-11-17: 6.54 km</title>
</rect>
<rect class="cell" x="674" y="160" width="12" height="12" fill="#444444">
<title>2023-11-18: 0.00 km</title>
</rect>
<rect class="cell" x="674" y="174" width="12" height="12" fill="#444444">
<title>2023-11-19: 0.00 km</title>
</rect>
<rect class="cell" x="688" y="90" width="12" height="12" fill="#444444">
<title>2023-11-20: 0.00 km</title>
</rect>
<rect class="cell" x="688" y="104" width="12" height="12" fill="#444444">
<title>2023-11-21: 0.00 km</title>
</rect>
<rect class="cell" x="688" y="118" width="12" height="12" fill="#444444">
<title>2023-11-22: 0.00 km</title>
</rect>
<rect class="cell" x="688" y="132" width="12" height="12" fill="#444444">
<title>2023-11-23: 0.00 km</title>
</rect>
<rect class="cell" x="688" y="146" width="12" height="12" fill="#444444">
<title>2023-11-24: 0.00 km</title>
</rect>
<rect class="cell" x="688" y="160" width="12" height="12" fill="#444444">
<title>2023-11-25: 0.00 km</title>
</rect>
<rect class="cell" x="688" y="174" width="12" height="12" fill="#444444">
<title>2023-11-26: 0.00 km</title>
</rect>
<rect class="cell" x="702" y="90" width="12" height="12" fill="#444444">
<title>2023-11-27: 0.00 km</title>
</rect>
<rect class="cell" x="702" y="104" width="12" height="12" fill="#444444">
<title>2023-11-28: 0.00 km</title>
</rect>
<rect class="cell" x="702" y="118" width="12" height="12" fill="#444444">
<title>2023-11-29: 0.00 km</title>
</rect>
<rect class="cell" x="702" y="132" width="12" height="12" fill="#444444">
<title>2023-11-30: 0.00 km</title>
</rect>
<rect class="cell" x="702" y="146" width="12" height="12" fill="#444444">
<title>2023-12-01: 0.00 km</title>
</rect>
<rect class="cell" x="702" y="160" width="12" height="12" fill="#444444">
<title>2023-12-02: 0.00 km</title>
</rect>
<rect class="cell" x="702" y="174" width="12" height="12" fill="#444444">
<title>2023-12-03: 0.00 km</title>
</rect>
<rect class="cell" x="716" y="90" width="12" height="12" fill="#444444">
<title>2023-12-04: 0.00 km</title>
</rect>
<rect class="cell" x="716" y="104" width="12" height="12" fill="#444444">
<title>2023-12-05: 0.00 km</title>
</rect>
<rect class="cell" x="716" y="118" width="12" height="12" fill="#444444">
<title>2023-12-06: 0.00 km</title>
</rect>
<rect class="cell" x="716" y="132" width="12" height="12" fill="#444444">
<title>2023-12-07: 0.00 km</title>
</rect>
<rect class="cell" x="716" y="146" width="12" height="12" fill="#FFA200">
<title>2023-12-08: 3.93 km</title>
</rect>
<rect class="cell" x="716" y="160" width="12" height="12" fill="#444444">
<title>2023-12-09: 0.00 km</title>
</rect>
<rect class="cell" x="716" y="174" width="12" height="12" fill="#444444">
<title>2023-12-10: 0.00 km</title>
</rect>
<rect class="cell" x="730" y="90" width="12" height="12" fill="#444444">
<title>2023-12-11: 0.00 km</title>
</rect>
<rect class="cell" x="730" y="104" width="12" height="12" fill="#444444">
<title>2023-12-12: 0.00 km</title>
</rect>
<rect class="cell" x="730" y="118" width="12" height="12" fill="#444444">
<title>2023-12-13: 0.00 km</title>
</rect>
<rect class="cell" x="730" y="132" width="12" height="12" fill="#444444">
<title>2023-12-14: 0.00 km</title>
</rect>
<rect class="cell" x="730" y="146" width="12" height="12" fill="#444444">
<title>2023-12-15: 0.00 km</title>
</rect>
<rect class="cell" x="730" y="160" width="12" height="12" fill="#444444">
<title>2023-12-16: 0.00 km</title>
</rect>
<rect class="cell" x="730" y="174" width="12" height="12" fill="#444444">
<title>2023-12-17: 0.00 km</title>
</rect>
<rect class="cell" x="744" y="90" width="12" height="12" fill="#444444">
<title>2023-12-18: 0.00 km</title>
</rect>
<rect class="cell" x="744" y="104" width="12" height="12" fill="#444444">
<title>2023-12-19: 0.00 km</title>
</rect>
<rect class="cell" x="744" y="118" width="12" height="12" fill="#444444">
<title>2023-12-20: 0.00 km</title>
</rect>
<rect class="cell" x="744" y="132" width="12" height="12" fill="#444444">
<title>2023-12-21: 0.00 km</title>
</rect>
<rect class="cell" x="744" y="146" width="12" height="12" fill="#444444">
<title>2023-12-22: 0.00 km</title>
</rect>
<rect class="cell" x="744" y="160" width="12" height="12" fill="#444444">
<title>2023-12-23: 0.00 km</title>
</rect>
<rect class="cell" x="744" y="174" width="12" height="12" fill="#444444">
<title>2023-12-24: 0.00 km</title>
</rect>
<rect class="cell" x="758" y="90" width="12" height="12" fill="#444444">
<title>2023-12-25: 0.00 km</title>
</rect>
<rect class="cell" x="758" y="104" width="12" height="12" fill="#444444">
<title>2023-12-26: 0.00 km</title>
</rect>
<rect class="cell" x="758" y="118" width="12" height="12" fill="#444444">
<title>2023-12-27: 0.00 km</title>
</rect>
<rect class="cell" x="758" y="132" width="12" height="12" fill="#444444">
<title>2023-12-28: 0.00 km</title>
</rect>
<rect class="cell" x="758" y="146" width="12" height="12" fill="#444444">
<title>2023-12-29: 0.00 km</title>
</rect>
<rect class="cell" x="758" y="160" width="12" height="12" fill="#444444">
<title>2023-12-30: 0.00 km</title>
</rect>
<rect class="cell" x="758" y="174" width="12" height="12" fill="#444444">
<title>2023-12-31: 0.00 km</title>
</rect>
<rect x="598" y="210" width="12" height="12" fill="#444444"/>
<rect x="610" y="210" width="12" height="12" fill="#FFFF00"/>
<rect x="622" y="210" width="12" height="12" fill="#FFDB00"/>
<rect x="634" y="210" width="12" height="12" fill="#FFBD00"/>
<rect x="646" y="210" width="12" height="12" fill="#FFA000"/>
<rect x="658" y="210" width="12" height="12" fill="#FF8400"/>
<rect x="670" y="210" width="12" height="12" fill="#FF6800"/>
<rect x="682" y="210" width="12" height="12" fill="#FF4D00"/>
<rect x="694" y="210" width="12" height="12" fill="#FF3300"/>
<rect x="706" y="210" width="12" height="12" fill="#FF1900"/>
<rect x="718" y="210" width="12" height="12" fill="#FF0000"/>
<text x="563" y="221" font-size="12" fill="#ffffff">0 km</text>
<text x="664" y="235" font-size="12" fill="#ffffff">5 km</text>
<text x="735" y="221" font-size="12" fill="#ffffff">10 km</text>
</svg>
