<?xml version="1.0" encoding="UTF-8"?>
<svg width="790" height="240" version="1.1" xmlns="http://www.w3.org/2000/svg">
<style>
.cell { transition: all 0.2s ease; }
.cell:hover { stroke: #1b1f23; stroke-width: 1; }
text { font-family: Arial; }
</style>
<rect width="100%" height="100%" fill="#222222"/>
<text x="30" y="25" font-size="20" font-weight="bold" fill="#ffffff">2025</text>
<text x="540" y="25" font-size="16" fill="#ffffff">Total: 27 days, 154.24 km</text>
<text x="540" y="50" font-size="16" fill="#ffffff">Last Run: 2025/05/04, 5.84 km</text>
<text x="30" y="80" font-size="12" fill="#ffffff">Jan</text>
<text x="86" y="80" font-size="12" fill="#ffffff">Feb</text>
<text x="142" y="80" font-size="12" fill="#ffffff">Mar</text>
<text x="212" y="80" font-size="12" fill="#ffffff">Apr</text>
<text x="268" y="80" font-size="12" fill="#ffffff">May</text>
<text x="324" y="80" font-size="12" fill="#ffffff">Jun</text>
<text x="394" y="80" font-size="12" fill="#ffffff">Jul</text>
<text x="450" y="80" font-size="12" fill="#ffffff">Aug</text>
<text x="520" y="80" font-size="12" fill="#ffffff">Sep</text>
<text x="576" y="80" font-size="12" fill="#ffffff">Oct</text>
<text x="632" y="80" font-size="12" fill="#ffffff">Nov</text>
<text x="702" y="80" font-size="12" fill="#ffffff">Dec</text>
<rect class="cell" x="30" y="118" width="12" height="12" fill="#FF5700">
<title>2025-01-01: 6.66 km</title>
</rect>
<rect class="cell" x="30" y="132" width="12" height="12" fill="#444444">
<title>2025-01-02: 0.00 km</title>
</rect>
<rect class="cell" x="30" y="146" width="12" height="12" fill="#FF6400">
<title>2025-01-03: 6.14 km</title>
</rect>
<rect class="cell" x="30" y="160" width="12" height="12" fill="#444444">
<title>2025-01-04: 0.00 km</title>
</rect>
<rect class="cell" x="30" y="174" width="12" height="12" fill="#444444">
<title>2025-01-05: 0.00 km</title>
</rect>
<rect class="cell" x="44" y="90" width="12" height="12" fill="#444444">
<title>2025-01-06: 0.00 km</title>
</rect>
<rect class="cell" x="44" y="104" width="12" height="12" fill="#444444">
<title>2025-01-07: 0.00 km</title>
</rect>
<rect class="cell" x="44" y="118" width="12" height="12" fill="#444444">
<title>2025-01-08: 0.00 km</title>
</rect>
<rect class="cell" x="44" y="132" width="12" height="12" fill="#444444">
<title>2025-01-09: 0.00 km</title>
</rect>
<rect class="cell" x="44" y="146" width="12" height="12" fill="#444444">
<title>2025-01-10: 0.00 km</title>
</rect>
<rect class="cell" x="44" y="160" width="12" height="12" fill="#444444">
<title>2025-01-11: 0.00 km</title>
</rect>
<rect class="cell" x="44" y="174" width="12" height="12" fill="#444444">
<title>2025-01-12: 0.00 km</title>
</rect>
<rect class="cell" x="58" y="90" width="12" height="12" fill="#444444">
<title>2025-01-13: 0.00 km</title>
</rect>
<rect class="cell" x="58" y="104" width="12" height="12" fill="#444444">
<title>2025-01-14: 0.00 km</title>
</rect>
<rect class="cell" x="58" y="118" width="12" height="12" fill="#444444">
<title>2025-01-15: 0.00 km</title>
</rect>
<rect class="cell" x="58" y="132" width="12" height="12" fill="#444444">
<title>2025-01-16: 0.00 km</title>
</rect>
<rect class="cell" x="58" y="146" width="12" height="12" fill="#444444">
<title>2025-01-17: 0.00 km</title>
</rect>
<rect class="cell" x="58" y="160" width="12" height="12" fill="#444444">
<title>2025-01-18: 0.00 km</title>
</rect>
<rect class="cell" x="58" y="174" width="12" height="12" fill="#444444">
<title>2025-01-19: 0.00 km</title>
</rect>
<rect class="cell" x="72" y="90" width="12" height="12" fill="#FF5700">
<title>2025-01-20: 6.66 km</title>
</rect>
<rect class="cell" x="72" y="104" width="12" height="12" fill="#444444">
<title>2025-01-21: 0.00 km</title>
</rect>
<rect class="cell" x="72" y="118" width="12" height="12" fill="#FF7B00">
<title>2025-01-22: 5.30 km</title>
</rect>
<rect class="cell" x="72" y="132" width="12" height="12" fill="#444444">
<title>2025-01-23: 0.00 km</title>
</rect>
<rect class="cell" x="72" y="146" width="12" height="12" fill="#FF5B00">
<title>2025-01-24: 6.48 km</title>
</rect>
<rect class="cell" x="72" y="160" width="12" height="12" fill="#444444">
<title>2025-01-25: 0.00 km</title>
</rect>
<rect class="cell" x="72" y="174" width="12" height="12" fill="#444444">
<title>2025-01-26: 0.00 km</title>
</rect>
<rect class="cell" x="86" y="90" width="12" height="12" fill="#444444">
<title>2025-01-27: 0.00 km</title>
</rect>
<rect class="cell" x="86" y="104" width="12" height="12" fill="#444444">
<title>2025-01-28: 0.00 km</title>
</rect>
<rect class="cell" x="86" y="118" width="12" height="12" fill="#444444">
<title>2025-01-29: 0.00 km</title>
</rect>
<rect class="cell" x="86" y="132" width="12" height="12" fill="#444444">
<title>2025-01-30: 0.00 km</title>
</rect>
<rect class="cell" x="86" y="146" width="12" height="12" fill="#444444">
<title>2025-01-31: 0.00 km</title>
</rect>
<rect class="cell" x="86" y="160" width="12" height="12" fill="#444444">
<title>2025-02-01: 0.00 km</title>
</rect>
<rect class="cell" x="86" y="174" width="12" height="12" fill="#444444">
<title>2025-02-02: 0.00 km</title>
</rect>
<rect class="cell" x="100" y="90" width="12" height="12" fill="#444444">
<title>2025-02-03: 0.00 km</title>
</rect>
<rect class="cell" x="100" y="104" width="12" height="12" fill="#444444">
<title>2025-02-04: 0.00 km</title>
</rect>
<rect class="cell" x="100" y="118" width="12" height="12" fill="#444444">
<title>2025-02-05: 0.00 km</title>
</rect>
<rect class="cell" x="100" y="132" width="12" height="12" fill="#444444">
<title>2025-02-06: 0.00 km</title>
</rect>
<rect class="cell" x="100" y="146" width="12" height="12" fill="#444444">
<title>2025-02-07: 0.00 km</title>
</rect>
<rect class="cell" x="100" y="160" width="12" height="12" fill="#444444">
<title>2025-02-08: 0.00 km</title>
</rect>
<rect class="cell" x="100" y="174" width="12" height="12" fill="#444444">
<title>2025-02-09: 0.00 km</title>
</rect>
<rect class="cell" x="114" y="90" width="12" height="12" fill="#FF7900">
<title>2025-02-10: 5.38 km</title>
</rect>
<rect class="cell" x="114" y="104" width="12" height="12" fill="#444444">
<title>2025-02-11: 0.00 km</title>
</rect>
<rect class="cell" x="114" y="118" width="12" height="12" fill="#444444">
<title>2025-02-12: 0.00 km</title>
</rect>
<rect class="cell" x="114" y="132" width="12" height="12" fill="#444444">
<title>2025-02-13: 0.00 km</title>
</rect>
<rect class="cell" x="114" y="146" width="12" height="12" fill="#444444">
<title>2025-02-14: 0.00 km</title>
</rect>
<rect class="cell" x="114" y="160" width="12" height="12" fill="#444444">
<title>2025-02-15: 0.00 km</title>
</rect>
<rect class="cell" x="114" y="174" width="12" height="12" fill="#444444">
<title>2025-02-16: 0.00 km</title>
</rect>
<rect class="cell" x="128" y="90" width="12" height="12" fill="#444444">
<title>2025-02-17: 0.00 km</title>
</rect>
<rect class="cell" x="128" y="104" width="12" height="12" fill="#444444">
<title>2025-02-18: 0.00 km</title>
</rect>
<rect class="cell" x="128" y="118" width="12" height="12" fill="#444444">
<title>2025-02-19: 0.00 km</title>
</rect>
<rect class="cell" x="128" y="132" width="12" height="12" fill="#444444">
<title>2025-02-20: 0.00 km</title>
</rect>
<rect class="cell" x="128" y="146" width="12" height="12" fill="#444444">
<title>2025-02-21: 0.00 km</title>
</rect>
<rect class="cell" x="128" y="160" width="12" height="12" fill="#444444">
<title>2025-02-22: 0.00 km</title>
</rect>
<rect class="cell" x="128" y="174" width="12" height="12" fill="#444444">
<title>2025-02-23: 0.00 km</title>
</rect>
<rect class="cell" x="142" y="90" width="12" height="12" fill="#444444">
<title>2025-02-24: 0.00 km</title>
</rect>
<rect class="cell" x="142" y="104" width="12" height="12" fill="#FF7F00">
<title>2025-02-25: 5.16 km</title>
</rect>
<rect class="cell" x="142" y="118" width="12" height="12" fill="#FF6800">
<title>2025-02-26: 6.01 km</title>
</rect>
<rect class="cell" x="142" y="132" width="12" height="12" fill="#444444">
<title>2025-02-27: 0.00 km</title>
</rect>
<rect class="cell" x="142" y="146" width="12" height="12" fill="#FF7B00">
<title>2025-02-28: 5.32 km</title>
</rect>
<rect class="cell" x="142" y="160" width="12" height="12" fill="#444444">
<title>2025-03-01: 0.00 km</title>
</rect>
<rect class="cell" x="142" y="174" width="12" height="12" fill="#444444">
<title>2025-03-02: 0.00 km</title>
</rect>
<rect class="cell" x="156" y="90" width="12" height="12" fill="#444444">
<title>2025-03-03: 0.00 km</title>
</rect>
<rect class="cell" x="156" y="104" width="12" height="12" fill="#444444">
<title>2025-03-04: 0.00 km</title>
</rect>
<rect class="cell" x="156" y="118" width="12" height="12" fill="#444444">
<title>2025-03-05: 0.00 km</title>
</rect>
<rect class="cell" x="156" y="132" width="12" height="12" fill="#444444">
<title>2025-03-06: 0.00 km</title>
</rect>
<rect class="cell" x="156" y="146" width="12" height="12" fill="#FF7D00">
<title>2025-03-07: 5.24 km</title>
</rect>
<rect class="cell" x="156" y="160" width="12" height="12" fill="#444444">
<title>2025-03-08: 0.00 km</title>
</rect>
<rect class="cell" x="156" y="174" width="12" height="12" fill="#444444">
<title>2025-03-09: 0.00 km</title>
</rect>
<rect class="cell" x="170" y="90" width="12" height="12" fill="#FF6E00">
<title>2025-03-10: 5.79 km</title>
</rect>
<rect class="cell" x="170" y="104" width="12" height="12" fill="#444444">
<title>2025-03-11: 0.00 km</title>
</rect>
<rect class="cell" x="170" y="118" width="12" height="12" fill="#FF7300">
<title>2025-03-12: 5.60 km</title>
</rect>
<rect class="cell" x="170" y="132" width="12" height="12" fill="#444444">
<title>2025-03-13: 0.00 km</title>
</rect>
<rect class="cell" x="170" y="146" width="12" height="12" fill="#FF6100">
<title>2025-03-14: 6.28 km</title>
</rect>
<rect class="cell" x="170" y="160" width="12" height="12" fill="#444444">
<title>2025-03-15: 0.00 km</title>
</rect>
<rect class="cell" x="170" y="174" width="12" height="12" fill="#444444">
<title>2025-03-16: 0.00 km</title>
</rect>
<rect class="cell" x="184" y="90" width="12" height="12" fill="#FF7300">
<title>2025-03-17: 5.59 km</title>
</rect>
<rect class="cell" x="184" y="104" width="12" height="12" fill="#444444">
<title>2025-03-18: 0.00 km</title>
</rect>
<rect class="cell" x="184" y="118" width="12" height="12" fill="#FF6D00">
<title>2025-03-19: 5.81 km</title>
</rect>
<rect class="cell" x="184" y="132" width="12" height="12" fill="#444444">
<title>2025-03-20: 0.00 km</title>
</rect>
<rect class="cell" x="184" y="146" width="12" height="12" fill="#FF7300">
<title>2025-03-21: 5.62 km</title>
</rect>
<rect class="cell" x="184" y="160" width="12" height="12" fill="#444444">
<title>2025-03-22: 0.00 km</title>
</rect>
<rect class="cell" x="184" y="174" width="12" height="12" fill="#444444">
<title>2025-03-23: 0.00 km</title>
</rect>
<rect class="cell" x="198" y="90" width="12" height="12" fill="#FF7000">
<title>2025-03-24: 5.71 km</title>
</rect>
<rect class="cell" x="198" y="104" width="12" height="12" fill="#444444">
<title>2025-03-25: 0.00 km</title>
</rect>
<rect class="cell" x="198" y="118" width="12" height="12" fill="#FF6F00">
<title>2025-03-26: 5.74 km</title>
</rect>
<rect class="cell" x="198" y="132" width="12" height="12" fill="#444444">
<title>2025-03-27: 0.00 km</title>
</rect>
<rect class="cell" x="198" y="146" width="12" height="12" fill="#444444">
<title>2025-03-28: 0.00 km</title>
</rect>
<rect class="cell" x="198" y="160" width="12" height="12" fill="#444444">
<title>2025-03-29: 0.00 km</title>
</rect>
<rect class="cell" x="198" y="174" width="12" height="12" fill="#444444">
<title>2025-03-30: 0.00 km</title>
</rect>
<rect class="cell" x="212" y="90" width="12" height="12" fill="#FF7300">
<title>2025-03-31: 5.59 km</title>
</rect>
<rect class="cell" x="212" y="104" width="12" height="12" fill="#444444">
<title>2025-04-01: 0.00 km</title>
</rect>
<rect class="cell" x="212" y="118" width="12" height="12" fill="#FF7300">
<title>2025-04-02: 5.60 km</title>
</rect>
<rect class="cell" x="212" y="132" width="12" height="12" fill="#444444">
<title>2025-04-03: 0.00 km</title>
</rect>
<rect class="cell" x="212" y="146" width="12" height="12" fill="#444444">
<title>2025-04-04: 0.00 km</title>
</rect>
<rect class="cell" x="212" y="160" width="12" height="12" fill="#444444">
<title>2025-04-05: 0.00 km</title>
</rect>
<rect class="cell" x="212" y="174" width="12" height="12" fill="#444444">
<title>2025-04-06: 0.00 km</title>
</rect>
<rect class="cell" x="226" y="90" width="12" height="12" fill="#444444">
<title>2025-04-07: 0.00 km</title>
</rect>
<rect class="cell" x="226" y="104" width="12" height="12" fill="#444444">
<title>2025-04-08: 0.00 km</title>
</rect>
<rect class="cell" x="226" y="118" width="12" height="12" fill="#FF7C00">
<title>2025-04-09: 5.27 km</title>
</rect>
<rect class="cell" x="226" y="132" width="12" height="12" fill="#444444">
<title>2025-04-10: 0.00 km</title>
</rect>
<rect class="cell" x="226" y="146" width="12" height="12" fill="#444444">
<title>2025-04-11: 0.00 km</title>
</rect>
<rect class="cell" x="226" y="160" width="12" height="12" fill="#444444">
<title>2025-04-12: 0.00 km</title>
</rect>
<rect class="cell" x="226" y="174" width="12" height="12" fill="#444444">
<title>2025-04-13: 0.00 km</title>
</rect>
<rect class="cell" x="240" y="90" width="12" height="12" fill="#444444">
<title>2025-04-14: 0.00 km</title>
</rect>
<rect class="cell" x="240" y="104" width="12" height="12" fill="#444444">
<title>2025-04-15: 0.00 km</title>
</rect>
<rect class="cell" x="240" y="118" width="12" height="12" fill="#FF7E00">
<title>2025-04-16: 5.21 km</title>
</rect>
<rect class="cell" x="240" y="132" width="12" height="12" fill="#444444">
<title>2025-04-17: 0.00 km</title>
</rect>
<rect class="cell" x="240" y="146" width="12" height="12" fill="#FF7700">
<title>2025-04-18: 5.44 km</title>
</rect>
<rect class="cell" x="240" y="160" width="12" height="12" fill="#444444">
<title>2025-04-19: 0.00 km</title>
</rect>
<rect class="cell" x="240" y="174" width="12" height="12" fill="#444444">
<title>2025-04-20: 0.00 km</title>
</rect>
<rect class="cell" x="254" y="90" width="12" height="12" fill="#444444">
<title>2025-04-21: 0.00 km</title>
</rect>
<rect class="cell" x="254" y="104" width="12" height="12" fill="#FF7600">
<title>2025-04-22: 5.50 km</title>
</rect>
<rect class="cell" x="254" y="118" width="12" height="12" fill="#444444">
<title>2025-04-23: 0.00 km</title>
</rect>
<rect class="cell" x="254" y="132" width="12" height="12" fill="#444444">
<title>2025-04-24: 0.00 km</title>
</rect>
<rect class="cell" x="254" y="146" width="12" height="12" fill="#444444">
<title>2025-04-25: 0.00 km</title>
</rect>
<rect class="cell" x="254" y="160" width="12" height="12" fill="#444444">
<title>2025-04-26: 0.00 km</title>
</rect>
<rect class="cell" x="254" y="174" width="12" height="12" fill="#444444">
<title>2025-04-27: 0.00 km</title>
</rect>
<rect class="cell" x="268" y="90" width="12" height="12" fill="#FF7200">
<title>2025-04-28: 5.65 km</title>
</rect>
<rect class="cell" x="268" y="104" width="12" height="12" fill="#FF7200">
<title>2025-04-29: 5.65 km</title>
</rect>
<rect class="cell" x="268" y="118" width="12" height="12" fill="#444444">
<title>2025-04-30: 0.00 km</title>
</rect>
<rect class="cell" x="268" y="132" width="12" height="12" fill="#444444">
<title>2025-05-01: 0.00 km</title>
</rect>
<rect class="cell" x="268" y="146" width="12" height="12" fill="#444444">
<title>2025-05-02: 0.00 km</title>
</rect>
<rect class="cell" x="268" y="160" width="12" height="12" fill="#444444">
<title>2025-05-03: 0.00 km</title>
</rect>
<rect class="cell" x="268" y="174" width="12" height="12" fill="#FF6D00">
<title>2025-05-04: 5.84 km</title>
</rect>
<rect class="cell" x="282" y="90" width="12" height="12" fill="#444444">
<title>2025-05-05: 0.00 km</title>
</rect>
<rect class="cell" x="282" y="104" width="12" height="12" fill="#444444">
<title>2025-05-06: 0.00 km</title>
</rect>
<rect class="cell" x="282" y="118" width="12" height="12" fill="#444444">
<title>2025-05-07: 0.00 km</title>
</rect>
<rect class="cell" x="282" y="132" width="12" height="12" fill="#444444">
<title>2025-05-08: 0.00 km</title>
</rect>
<rect class="cell" x="282" y="146" width="12" height="12" fill="#444444">
<title>2025-05-09: 0.00 km</title>
</rect>
<rect class="cell" x="282" y="160" width="12" height="12" fill="#444444">
<title>2025-05-10: 0.00 km</title>
</rect>
<rect class="cell" x="282" y="174" width="12" height="12" fill="#444444">
<title>2025-05-11: 0.00 km</title>
</rect>
<rect class="cell" x="296" y="90" width="12" height="12" fill="#444444">
<title>2025-05-12: 0.00 km</title>
</rect>
<rect class="cell" x="296" y="104" width="12" height="12" fill="#444444">
<title>2025-05-13: 0.00 km</title>
</rect>
<rect class="cell" x="296" y="118" width="12" height="12" fill="#444444">
<title>2025-05-14: 0.00 km</title>
</rect>
<rect class="cell" x="296" y="132" width="12" height="12" fill="#444444">
<title>2025-05-15: 0.00 km</title>
</rect>
<rect class="cell" x="296" y="146" width="12" height="12" fill="#444444">
<title>2025-05-16: 0.00 km</title>
</rect>
<rect class="cell" x="296" y="160" width="12" height="12" fill="#444444">
<title>2025-05-17: 0.00 km</title>
</rect>
<rect class="cell" x="296" y="174" width="12" height="12" fill="#444444">
<title>2025-05-18: 0.00 km</title>
</rect>
<rect class="cell" x="310" y="90" width="12" height="12" fill="#444444">
<title>2025-05-19: 0.00 km</title>
</rect>
<rect class="cell" x="310" y="104" width="12" height="12" fill="#444444">
<title>2025-05-20: 0.00 km</title>
</rect>
<rect class="cell" x="310" y="118" width="12" height="12" fill="#444444">
<title>2025-05-21: 0.00 km</title>
</rect>
<rect class="cell" x="310" y="132" width="12" height="12" fill="#444444">
<title>2025-05-22: 0.00 km</title>
</rect>
<rect class="cell" x="310" y="146" width="12" height="12" fill="#444444">
<title>2025-05-23: 0.00 km</title>
</rect>
<rect class="cell" x="310" y="160" width="12" height="12" fill="#444444">
<title>2025-05-24: 0.00 km</title>
</rect>
<rect class="cell" x="310" y="174" width="12" height="12" fill="#444444">
<title>2025-05-25: 0.00 km</title>
</rect>
<rect class="cell" x="324" y="90" width="12" height="12" fill="#444444">
<title>2025-05-26: 0.00 km</title>
</rect>
<rect class="cell" x="324" y="104" width="12" height="12" fill="#444444">
<title>2025-05-27: 0.00 km</title>
</rect>
<rect class="cell" x="324" y="118" width="12" height="12" fill="#444444">
<title>2025-05-28: 0.00 km</title>
</rect>
<rect class="cell" x="324" y="132" width="12" height="12" fill="#444444">
<title>2025-05-29: 0.00 km</title>
</rect>
<rect class="cell" x="324" y="146" width="12" height="12" fill="#444444">
<title>2025-05-30: 0.00 km</title>
</rect>
<rect class="cell" x="324" y="160" width="12" height="12" fill="#444444">
<title>2025-05-31: 0.00 km</title>
</rect>
<rect class="cell" x="324" y="174" width="12" height="12" fill="#444444">
<title>2025-06-01: 0.00 km</title>
</rect>
<rect class="cell" x="338" y="90" width="12" height="12" fill="#444444">
<title>2025-06-02: 0.00 km</title>
</rect>
<rect class="cell" x="338" y="104" width="12" height="12" fill="#444444">
<title>2025-06-03: 0.00 km</title>
</rect>
<rect class="cell" x="338" y="118" width="12" height="12" fill="#444444">
<title>2025-06-04: 0.00 km</title>
</rect>
<rect class="cell" x="338" y="132" width="12" height="12" fill="#444444">
<title>2025-06-05: 0.00 km</title>
</rect>
<rect class="cell" x="338" y="146" width="12" height="12" fill="#444444">
<title>2025-06-06: 0.00 km</title>
</rect>
<rect class="cell" x="338" y="160" width="12" height="12" fill="#444444">
<title>2025-06-07: 0.00 km</title>
</rect>
<rect class="cell" x="338" y="174" width="12" height="12" fill="#444444">
<title>2025-06-08: 0.00 km</title>
</rect>
<rect class="cell" x="352" y="90" width="12" height="12" fill="#444444">
<title>2025-06-09: 0.00 km</title>
</rect>
<rect class="cell" x="352" y="104" width="12" height="12" fill="#444444">
<title>2025-06-10: 0.00 km</title>
</rect>
<rect class="cell" x="352" y="118" width="12" height="12" fill="#444444">
<title>2025-06-11: 0.00 km</title>
</rect>
<rect class="cell" x="352" y="132" width="12" height="12" fill="#444444">
<title>2025-06-12: 0.00 km</title>
</rect>
<rect class="cell" x="352" y="146" width="12" height="12" fill="#444444">
<title>2025-06-13: 0.00 km</title>
</rect>
<rect class="cell" x="352" y="160" width="12" height="12" fill="#444444">
<title>2025-06-14: 0.00 km</title>
</rect>
<rect class="cell" x="352" y="174" width="12" height="12" fill="#444444">
<title>2025-06-15: 0.00 km</title>
</rect>
<rect class="cell" x="366" y="90" width="12" height="12" fill="#444444">
<title>2025-06-16: 0.00 km</title>
</rect>
<rect class="cell" x="366" y="104" width="12" height="12" fill="#444444">
<title>2025-06-17: 0.00 km</title>
</rect>
<rect class="cell" x="366" y="118" width="12" height="12" fill="#444444">
<title>2025-06-18: 0.00 km</title>
</rect>
<rect class="cell" x="366" y="132" width="12" height="12" fill="#444444">
<title>2025-06-19: 0.00 km</title>
</rect>
<rect class="cell" x="366" y="146" width="12" height="12" fill="#444444">
<title>2025-06-20: 0.00 km</title>
</rect>
<rect class="cell" x="366" y="160" width="12" height="12" fill="#444444">
<title>2025-06-21: 0.00 km</title>
</rect>
<rect class="cell" x="366" y="174" width="12" height="12" fill="#444444">
<title>2025-06-22: 0.00 km</title>
</rect>
<rect class="cell" x="380" y="90" width="12" height="12" fill="#444444">
<title>2025-06-23: 0.00 km</title>
</rect>
<rect class="cell" x="380" y="104" width="12" height="12" fill="#444444">
<title>2025-06-24: 0.00 km</title>
</rect>
<rect class="cell" x="380" y="118" width="12" height="12" fill="#444444">
<title>2025-06-25: 0.00 km</title>
</rect>
<rect class="cell" x="380" y="132" width="12" height="12" fill="#444444">
<title>2025-06-26: 0.00 km</title>
</rect>
<rect class="cell" x="380" y="146" width="12" height="12" fill="#444444">
<title>2025-06-27: 0.00 km</title>
</rect>
<rect class="cell" x="380" y="160" width="12" height="12" fill="#444444">
<title>2025-06-28: 0.00 km</title>
</rect>
<rect class="cell" x="380" y="174" width="12" height="12" fill="#444444">
<title>2025-06-29: 0.00 km</title>
</rect>
<rect class="cell" x="394" y="90" width="12" height="12" fill="#444444">
<title>2025-06-30: 0.00 km</title>
</rect>
<rect class="cell" x="394" y="104" width="12" height="12" fill="#444444">
<title>2025-07-01: 0.00 km</title>
</rect>
<rect class="cell" x="394" y="118" width="12" height="12" fill="#444444">
<title>2025-07-02: 0.00 km</title>
</rect>
<rect class="cell" x="394" y="132" width="12" height="12" fill="#444444">
<title>2025-07-03: 0.00 km</title>
</rect>
<rect class="cell" x="394" y="146" width="12" height="12" fill="#444444">
<title>2025-07-04: 0.00 km</title>
</rect>
<rect class="cell" x="394" y="160" width="12" height="12" fill="#444444">
<title>2025-07-05: 0.00 km</title>
</rect>
<rect class="cell" x="394" y="174" width="12" height="12" fill="#444444">
<title>2025-07-06: 0.00 km</title>
</rect>
<rect class="cell" x="408" y="90" width="12" height="12" fill="#444444">
<title>2025-07-07: 0.00 km</title>
</rect>
<rect class="cell" x="408" y="104" width="12" height="12" fill="#444444">
<title>2025-07-08: 0.00 km</title>
</rect>
<rect class="cell" x="408" y="118" width="12" height="12" fill="#444444">
<title>2025-07-09: 0.00 km</title>
</rect>
<rect class="cell" x="408" y="132" width="12" height="12" fill="#444444">
<title>2025-07-10: 0.00 km</title>
</rect>
<rect class="cell" x="408" y="146" width="12" height="12" fill="#444444">
<title>2025-07-11: 0.00 km</title>
</rect>
<rect class="cell" x="408" y="160" width="12" height="12" fill="#444444">
<title>2025-07-12: 0.00 km</title>
</rect>
<rect class="cell" x="408" y="174" width="12" height="12" fill="#444444">
<title>2025-07-13: 0.00 km</title>
</rect>
<rect class="cell" x="422" y="90" width="12" height="12" fill="#444444">
<title>2025-07-14: 0.00 km</title>
</rect>
<rect class="cell" x="422" y="104" width="12" height="12" fill="#444444">
<title>2025-07-15: 0.00 km</title>
</rect>
<rect class="cell" x="422" y="118" width="12" height="12" fill="#444444">
<title>2025-07-16: 0.00 km</title>
</rect>
<rect class="cell" x="422" y="132" width="12" height="12" fill="#444444">
<title>2025-07-17: 0.00 km</title>
</rect>
<rect class="cell" x="422" y="146" width="12" height="12" fill="#444444">
<title>2025-07-18: 0.00 km</title>
</rect>
<rect class="cell" x="422" y="160" width="12" height="12" fill="#444444">
<title>2025-07-19: 0.00 km</title>
</rect>
<rect class="cell" x="422" y="174" width="12" height="12" fill="#444444">
<title>2025-07-20: 0.00 km</title>
</rect>
<rect class="cell" x="436" y="90" width="12" height="12" fill="#444444">
<title>2025-07-21: 0.00 km</title>
</rect>
<rect class="cell" x="436" y="104" width="12" height="12" fill="#444444">
<title>2025-07-22: 0.00 km</title>
</rect>
<rect class="cell" x="436" y="118" width="12" height="12" fill="#444444">
<title>2025-07-23: 0.00 km</title>
</rect>
<rect class="cell" x="436" y="132" width="12" height="12" fill="#444444">
<title>2025-07-24: 0.00 km</title>
</rect>
<rect class="cell" x="436" y="146" width="12" height="12" fill="#444444">
<title>2025-07-25: 0.00 km</title>
</rect>
<rect class="cell" x="436" y="160" width="12" height="12" fill="#444444">
<title>2025-07-26: 0.00 km</title>
</rect>
<rect class="cell" x="436" y="174" width="12" height="12" fill="#444444">
<title>2025-07-27: 0.00 km</title>
</rect>
<rect class="cell" x="450" y="90" width="12" height="12" fill="#444444">
<title>2025-07-28: 0.00 km</title>
</rect>
<rect class="cell" x="450" y="104" width="12" height="12" fill="#444444">
<title>2025-07-29: 0.00 km</title>
</rect>
<rect class="cell" x="450" y="118" width="12" height="12" fill="#444444">
<title>2025-07-30: 0.00 km</title>
</rect>
<rect class="cell" x="450" y="132" width="12" height="12" fill="#444444">
<title>2025-07-31: 0.00 km</title>
</rect>
<rect class="cell" x="450" y="146" width="12" height="12" fill="#444444">
<title>2025-08-01: 0.00 km</title>
</rect>
<rect class="cell" x="450" y="160" width="12" height="12" fill="#444444">
<title>2025-08-02: 0.00 km</title>
</rect>
<rect class="cell" x="450" y="174" width="12" height="12" fill="#444444">
<title>2025-08-03: 0.00 km</title>
</rect>
<rect class="cell" x="464" y="90" width="12" height="12" fill="#444444">
<title>2025-08-04: 0.00 km</title>
</rect>
<rect class="cell" x="464" y="104" width="12" height="12" fill="#444444">
<title>2025-08-05: 0.00 km</title>
</rect>
<rect class="cell" x="464" y="118" width="12" height="12" fill="#444444">
<title>2025-08-06: 0.00 km</title>
</rect>
<rect class="cell" x="464" y="132" width="12" height="12" fill="#444444">
<title>2025-08-07: 0.00 km</title>
</rect>
<rect class="cell" x="464" y="146" width="12" height="12" fill="#444444">
<title>2025-08-08: 0.00 km</title>
</rect>
<rect class="cell" x="464" y="160" width="12" height="12" fill="#444444">
<title>2025-08-09: 0.00 km</title>
</rect>
<rect class="cell" x="464" y="174" width="12" height="12" fill="#444444">
<title>2025-08-10: 0.00 km</title>
</rect>
<rect class="cell" x="478" y="90" width="12" height="12" fill="#444444">
<title>2025-08-11: 0.00 km</title>
</rect>
<rect class="cell" x="478" y="104" width="12" height="12" fill="#444444">
<title>2025-08-12: 0.00 km</title>
</rect>
<rect class="cell" x="478" y="118" width="12" height="12" fill="#444444">
<title>2025-08-13: 0.00 km</title>
</rect>
<rect class="cell" x="478" y="132" width="12" height="12" fill="#444444">
<title>2025-08-14: 0.00 km</title>
</rect>
<rect class="cell" x="478" y="146" width="12" height="12" fill="#444444">
<title>2025-08-15: 0.00 km</title>
</rect>
<rect class="cell" x="478" y="160" width="12" height="12" fill="#444444">
<title>2025-08-16: 0.00 km</title>
</rect>
<rect class="cell" x="478" y="174" width="12" height="12" fill="#444444">
<title>2025-08-17: 0.00 km</title>
</rect>
<rect class="cell" x="492" y="90" width="12" height="12" fill="#444444">
<title>2025-08-18: 0.00 km</title>
</rect>
<rect class="cell" x="492" y="104" width="12" height="12" fill="#444444">
<title>2025-08-19: 0.00 km</title>
</rect>
<rect class="cell" x="492" y="118" width="12" height="12" fill="#444444">
<title>2025-08-20: 0.00 km</title>
</rect>
<rect class="cell" x="492" y="132" width="12" height="12" fill="#444444">
<title>2025-08-21: 0.00 km</title>
</rect>
<rect class="cell" x="492" y="146" width="12" height="12" fill="#444444">
<title>2025-08-22: 0.00 km</title>
</rect>
<rect class="cell" x="492" y="160" width="12" height="12" fill="#444444">
<title>2025-08-23: 0.00 km</title>
</rect>
<rect class="cell" x="492" y="174" width="12" height="12" fill="#444444">
<title>2025-08-24: 0.00 km</title>
</rect>
<rect class="cell" x="506" y="90" width="12" height="12" fill="#444444">
<title>2025-08-25: 0.00 km</title>
</rect>
<rect class="cell" x="506" y="104" width="12" height="12" fill="#444444">
<title>2025-08-26: 0.00 km</title>
</rect>
<rect class="cell" x="506" y="118" width="12" height="12" fill="#444444">
<title>2025-08-27: 0.00 km</title>
</rect>
<rect class="cell" x="506" y="132" width="12" height="12" fill="#444444">
<title>2025-08-28: 0.00 km</title>
</rect>
<rect class="cell" x="506" y="146" width="12" height="12" fill="#444444">
<title>2025-08-29: 0.00 km</title>
</rect>
<rect class="cell" x="506" y="160" width="12" height="12" fill="#444444">
<title>2025-08-30: 0.00 km</title>
</rect>
<rect class="cell" x="506" y="174" width="12" height="12" fill="#444444">
<title>2025-08-31: 0.00 km</title>
</rect>
<rect class="cell" x="520" y="90" width="12" height="12" fill="#444444">
<title>2025-09-01: 0.00 km</title>
</rect>
<rect class="cell" x="520" y="104" width="12" height="12" fill="#444444">
<title>2025-09-02: 0.00 km</title>
</rect>
<rect class="cell" x="520" y="118" width="12" height="12" fill="#444444">
<title>2025-09-03: 0.00 km</title>
</rect>
<rect class="cell" x="520" y="132" width="12" height="12" fill="#444444">
<title>2025-09-04: 0.00 km</title>
</rect>
<rect class="cell" x="520" y="146" width="12" height="12" fill="#444444">
<title>2025-09-05: 0.00 km</title>
</rect>
<rect class="cell" x="520" y="160" width="12" height="12" fill="#444444">
<title>2025-09-06: 0.00 km</title>
</rect>
<rect class="cell" x="520" y="174" width="12" height="12" fill="#444444">
<title>2025-09-07: 0.00 km</title>
</rect>
<rect class="cell" x="534" y="90" width="12" height="12" fill="#444444">
<title>2025-09-08: 0.00 km</title>
</rect>
<rect class="cell" x="534" y="104" width="12" height="12" fill="#444444">
<title>2025-09-09: 0.00 km</title>
</rect>
<rect class="cell" x="534" y="118" width="12" height="12" fill="#444444">
<title>2025-09-10: 0.00 km</title>
</rect>
<rect class="cell" x="534" y="132" width="12" height="12" fill="#444444">
<title>2025-09-11: 0.00 km</title>
</rect>
<rect class="cell" x="534" y="146" width="12" height="12" fill="#444444">
<title>2025-09-12: 0.00 km</title>
</rect>
<rect class="cell" x="534" y="160" width="12" height="12" fill="#444444">
<title>2025-09-13: 0.00 km</title>
</rect>
<rect class="cell" x="534" y="174" width="12" height="12" fill="#444444">
<title>2025-09-14: 0.00 km</title>
</rect>
<rect class="cell" x="548" y="90" width="12" height="12" fill="#444444">
<title>2025-09-15: 0.00 km</title>
</rect>
<rect class="cell" x="548" y="104" width="12" height="12" fill="#444444">
<title>2025-09-16: 0.00 km</title>
</rect>
<rect class="cell" x="548" y="118" width="12" height="12" fill="#444444">
<title>2025-09-17: 0.00 km</title>
</rect>
<rect class="cell" x="548" y="132" width="12" height="12" fill="#444444">
<title>2025-09-18: 0.00 km</title>
</rect>
<rect class="cell" x="548" y="146" width="12" height="12" fill="#444444">
<title>2025-09-19: 0.00 km</title>
</rect>
<rect class="cell" x="548" y="160" width="12" height="12" fill="#444444">
<title>2025-09-20: 0.00 km</title>
</rect>
<rect class="cell" x="548" y="174" width="12" height="12" fill="#444444">
<title>2025-09-21: 0.00 km</title>
</rect>
<rect class="cell" x="562" y="90" width="12" height="12" fill="#444444">
<title>2025-09-22: 0.00 km</title>
</rect>
<rect class="cell" x="562" y="104" width="12" height="12" fill="#444444">
<title>2025-09-23: 0.00 km</title>
</rect>
<rect class="cell" x="562" y="118" width="12" height="12" fill="#444444">
<title>2025-09-24: 0.00 km</title>
</rect>
<rect class="cell" x="562" y="132" width="12" height="12" fill="#444444">
<title>2025-09-25: 0.00 km</title>
</rect>
<rect class="cell" x="562" y="146" width="12" height="12" fill="#444444">
<title>2025-09-26: 0.00 km</title>
</rect>
<rect class="cell" x="562" y="160" width="12" height="12" fill="#444444">
<title>2025-09-27: 0.00 km</title>
</rect>
<rect class="cell" x="562" y="174" width="12" height="12" fill="#444444">
<title>2025-09-28: 0.00 km</title>
</rect>
<rect class="cell" x="576" y="90" width="12" height="12" fill="#444444">
<title>2025-09-29: 0.00 km</title>
</rect>
<rect class="cell" x="576" y="104" width="12" height="12" fill="#444444">
<title>2025-09-30: 0.00 km</title>
</rect>
<rect class="cell" x="576" y="118" width="12" height="12" fill="#444444">
<title>2025-10-01: 0.00 km</title>
</rect>
<rect class="cell" x="576" y="132" width="12" height="12" fill="#444444">
<title>2025-10-02: 0.00 km</title>
</rect>
<rect class="cell" x="576" y="146" width="12" height="12" fill="#444444">
<title>2025-10-03: 0.00 km</title>
</rect>
<rect class="cell" x="576" y="160" width="12" height="12" fill="#444444">
<title>2025-10-04: 0.00 km</title>
</rect>
<rect class="cell" x="576" y="174" width="12" height="12" fill="#444444">
<title>2025-10-05: 0.00 km</title>
</rect>
<rect class="cell" x="590" y="90" width="12" height="12" fill="#444444">
<title>2025-10-06: 0.00 km</title>
</rect>
<rect class="cell" x="590" y="104" width="12" height="12" fill="#444444">
<title>2025-10-07: 0.00 km</title>
</rect>
<rect class="cell" x="590" y="118" width="12" height="12" fill="#444444">
<title>2025-10-08: 0.00 km</title>
</rect>
<rect class="cell" x="590" y="132" width="12" height="12" fill="#444444">
<title>2025-10-09: 0.00 km</title>
</rect>
<rect class="cell" x="590" y="146" width="12" height="12" fill="#444444">
<title>2025-10-10: 0.00 km</title>
</rect>
<rect class="cell" x="590" y="160" width="12" height="12" fill="#444444">
<title>2025-10-11: 0.00 km</title>
</rect>
<rect class="cell" x="590" y="174" width="12" height="12" fill="#444444">
<title>2025-10-12: 0.00 km</title>
</rect>
<rect class="cell" x="604" y="90" width="12" height="12" fill="#444444">
<title>2025-10-13: 0.00 km</title>
</rect>
<rect class="cell" x="604" y="104" width="12" height="12" fill="#444444">
<title>2025-10-14: 0.00 km</title>
</rect>
<rect class="cell" x="604" y="118" width="12" height="12" fill="#444444">
<title>2025-10-15: 0.00 km</title>
</rect>
<rect class="cell" x="604" y="132" width="12" height="12" fill="#444444">
<title>2025-10-16: 0.00 km</title>
</rect>
<rect class="cell" x="604" y="146" width="12" height="12" fill="#444444">
<title>2025-10-17: 0.00 km</title>
</rect>
<rect class="cell" x="604" y="160" width="12" height="12" fill="#444444">
<title>2025-10-18: 0.00 km</title>
</rect>
<rect class="cell" x="604" y="174" width="12" height="12" fill="#444444">
<title>2025-10-19: 0.00 km</title>
</rect>
<rect class="cell" x="618" y="90" width="12" height="12" fill="#444444">
<title>2025-10-20: 0.00 km</title>
</rect>
<rect class="cell" x="618" y="104" width="12" height="12" fill="#444444">
<title>2025-10-21: 0.00 km</title>
</rect>
<rect class="cell" x="618" y="118" width="12" height="12" fill="#444444">
<title>2025-10-22: 0.00 km</title>
</rect>
<rect class="cell" x="618" y="132" width="12" height="12" fill="#444444">
<title>2025-10-23: 0.00 km</title>
</rect>
<rect class="cell" x="618" y="146" width="12" height="12" fill="#444444">
<title>2025-10-24: 0.00 km</title>
</rect>
<rect class="cell" x="618" y="160" width="12" height="12" fill="#444444">
<title>2025-10-25: 0.00 km</title>
</rect>
<rect class="cell" x="618" y="174" width="12" height="12" fill="#444444">
<title>2025-10-26: 0.00 km</title>
</rect>
<rect class="cell" x="632" y="90" width="12" height="12" fill="#444444">
<title>2025-10-27: 0.00 km</title>
</rect>
<rect class="cell" x="632" y="104" width="12" height="12" fill="#444444">
<title>2025-10-28: 0.00 km</title>
</rect>
<rect class="cell" x="632" y="118" width="12" height="12" fill="#444444">
<title>2025-10-29: 0.00 km</title>
</rect>
<rect class="cell" x="632" y="132" width="12" height="12" fill="#444444">
<title>2025-10-30: 0.00 km</title>
</rect>
<rect class="cell" x="632" y="146" width="12" height="12" fill="#444444">
<title>2025-10-31: 0.00 km</title>
</rect>
<rect class="cell" x="632" y="160" width="12" height="12" fill="#444444">
<title>2025-11-01: 0.00 km</title>
</rect>
<rect class="cell" x="632" y="174" width="12" height="12" fill="#444444">
<title>2025-11-02: 0.00 km</title>
</rect>
<rect class="cell" x="646" y="90" width="12" height="12" fill="#444444">
<title>2025-11-03: 0.00 km</title>
</rect>
<rect class="cell" x="646" y="104" width="12" height="12" fill="#444444">
<title>2025-11-04: 0.00 km</title>
</rect>
<rect class="cell" x="646" y="118" width="12" height="12" fill="#444444">
<title>2025-11-05: 0.00 km</title>
</rect>
<rect class="cell" x="646" y="132" width="12" height="12" fill="#444444">
<title>2025-11-06: 0.00 km</title>
</rect>
<rect class="cell" x="646" y="146" width="12" height="12" fill="#444444">
<title>2025-11-07: 0.00 km</title>
</rect>
<rect class="cell" x="646" y="160" width="12" height="12" fill="#444444">
<title>2025-11-08: 0.00 km</title>
</rect>
<rect class="cell" x="646" y="174" width="12" height="12" fill="#444444">
<title>2025-11-09: 0.00 km</title>
</rect>
<rect class="cell" x="660" y="90" width="12" height="12" fill="#444444">
<title>2025-11-10: 0.00 km</title>
</rect>
<rect class="cell" x="660" y="104" width="12" height="12" fill="#444444">
<title>2025-11-11: 0.00 km</title>
</rect>
<rect class="cell" x="660" y="118" width="12" height="12" fill="#444444">
<title>2025-11-12: 0.00 km</title>
</rect>
<rect class="cell" x="660" y="132" width="12" height="12" fill="#444444">
<title>2025-11-13: 0.00 km</title>
</rect>
<rect class="cell" x="660" y="146" width="12" height="12" fill="#444444">
<title>2025-11-14: 0.00 km</title>
</rect>
<rect class="cell" x="660" y="160" width="12" height="12" fill="#444444">
<title>2025-11-15: 0.00 km</title>
</rect>
<rect class="cell" x="660" y="174" width="12" height="12" fill="#444444">
<title>2025-11-16: 0.00 km</title>
</rect>
<rect class="cell" x="674" y="90" width="12" height="12" fill="#444444">
<title>2025-11-17: 0.00 km</title>
</rect>
<rect class="cell" x="674" y="104" width="12" height="12" fill="#444444">
<title>2025-11-18: 0.00 km</title>
</rect>
<rect class="cell" x="674" y="118" width="12" height="12" fill="#444444">
<title>2025-11-19: 0.00 km</title>
</rect>
<rect class="cell" x="674" y="132" width="12" height="12" fill="#444444">
<title>2025-11-20: 0.00 km</title>
</rect>
<rect class="cell" x="674" y="146" width="12" height="12" fill="#444444">
<title>2025-11-21: 0.00 km</title>
</rect>
<rect class="cell" x="674" y="160" width="12" height="12" fill="#444444">
<title>2025-11-22: 0.00 km</title>
</rect>
<rect class="cell" x="674" y="174" width="12" height="12" fill="#444444">
<title>2025-11-23: 0.00 km</title>
</rect>
<rect class="cell" x="688" y="90" width="12" height="12" fill="#444444">
<title>2025-11-24: 0.00 km</title>
</rect>
<rect class="cell" x="688" y="104" width="12" height="12" fill="#444444">
<title>2025-11-25: 0.00 km</title>
</rect>
<rect class="cell" x="688" y="118" width="12" height="12" fill="#444444">
<title>2025-11-26: 0.00 km</title>
</rect>
<rect class="cell" x="688" y="132" width="12" height="12" fill="#444444">
<title>2025-11-27: 0.00 km</title>
</rect>
<rect class="cell" x="688" y="146" width="12" height="12" fill="#444444">
<title>2025-11-28: 0.00 km</title>
</rect>
<rect class="cell" x="688" y="160" width="12" height="12" fill="#444444">
<title>2025-11-29: 0.00 km</title>
</rect>
<rect class="cell" x="688" y="174" width="12" height="12" fill="#444444">
<title>2025-11-30: 0.00 km</title>
</rect>
<rect class="cell" x="702" y="90" width="12" height="12" fill="#444444">
<title>2025-12-01: 0.00 km</title>
</rect>
<rect class="cell" x="702" y="104" width="12" height="12" fill="#444444">
<title>2025-12-02: 0.00 km</title>
</rect>
<rect class="cell" x="702" y="118" width="12" height="12" fill="#444444">
<title>2025-12-03: 0.00 km</title>
</rect>
<rect class="cell" x="702" y="132" width="12" height="12" fill="#444444">
<title>2025-12-04: 0.00 km</title>
</rect>
<rect class="cell" x="702" y="146" width="12" height="12" fill="#444444">
<title>2025-12-05: 0.00 km</title>
</rect>
<rect class="cell" x="702" y="160" width="12" height="12" fill="#444444">
<title>2025-12-06: 0.00 km</title>
</rect>
<rect class="cell" x="702" y="174" width="12" height="12" fill="#444444">
<title>2025-12-07: 0.00 km</title>
</rect>
<rect class="cell" x="716" y="90" width="12" height="12" fill="#444444">
<title>2025-12-08: 0.00 km</title>
</rect>
<rect class="cell" x="716" y="104" width="12" height="12" fill="#444444">
<title>2025-12-09: 0.00 km</title>
</rect>
<rect class="cell" x="716" y="118" width="12" height="12" fill="#444444">
<title>2025-12-10: 0.00 km</title>
</rect>
<rect class="cell" x="716" y="132" width="12" height="12" fill="#444444">
<title>2025-12-11: 0.00 km</title>
</rect>
<rect class="cell" x="716" y="146" width="12" height="12" fill="#444444">
<title>2025-12-12: 0.00 km</title>
</rect>
<rect class="cell" x="716" y="160" width="12" height="12" fill="#444444">
<title>2025-12-13: 0.00 km</title>
</rect>
<rect class="cell" x="716" y="174" width="12" height="12" fill="#444444">
<title>2025-12-14: 0.00 km</title>
</rect>
<rect class="cell" x="730" y="90" width="12" height="12" fill="#444444">
<title>2025-12-15: 0.00 km</title>
</rect>
<rect class="cell" x="730" y="104" width="12" height="12" fill="#444444">
<title>2025-12-16: 0.00 km</title>
</rect>
<rect class="cell" x="730" y="118" width="12" height="12" fill="#444444">
<title>2025-12-17: 0.00 km</title>
</rect>
<rect class="cell" x="730" y="132" width="12" height="12" fill="#444444">
<title>2025-12-18: 0.00 km</title>
</rect>
<rect class="cell" x="730" y="146" width="12" height="12" fill="#444444">
<title>2025-12-19: 0.00 km</title>
</rect>
<rect class="cell" x="730" y="160" width="12" height="12" fill="#444444">
<title>2025-12-20: 0.00 km</title>
</rect>
<rect class="cell" x="730" y="174" width="12" height="12" fill="#444444">
<title>2025-12-21: 0.00 km</title>
</rect>
<rect class="cell" x="744" y="90" width="12" height="12" fill="#444444">
<title>2025-12-22: 0.00 km</title>
</rect>
<rect class="cell" x="744" y="104" width="12" height="12" fill="#444444">
<title>2025-12-23: 0.00 km</title>
</rect>
<rect class="cell" x="744" y="118" width="12" height="12" fill="#444444">
<title>2025-12-24: 0.00 km</title>
</rect>
<rect class="cell" x="744" y="132" width="12" height="12" fill="#444444">
<title>2025-12-25: 0.00 km</title>
</rect>
<rect class="cell" x="744" y="146" width="12" height="12" fill="#444444">
<title>2025-12-26: 0.00 km</title>
</rect>
<rect class="cell" x="744" y="160" width="12" height="12" fill="#444444">
<title>2025-12-27: 0.00 km</title>
</rect>
<rect class="cell" x="744" y="174" width="12" height="12" fill="#444444">
<title>2025-12-28: 0.00 km</title>
</rect>
<rect class="cell" x="758" y="90" width="12" height="12" fill="#444444">
<title>2025-12-29: 0.00 km</title>
</rect>
<rect class="cell" x="758" y="104" width="12" height="12" fill="#444444">
<title>2025-12-30: 0.00 km</title>
</rect>
<rect class="cell" x="758" y="118" width="12" height="12" fill="#444444">
<title>2025-12-31: 0.00 km</title>
</rect>
<rect x="598" y="210" width="12" height="12" fill="#444444"/>
<rect x="610" y="210" width="12" height="12" fill="#FFFF00"/>
<rect x="622" y="210" width="12" height="12" fill="#FFDB00"/>
<rect x="634" y="210" width="12" height="12" fill="#FFBD00"/>
<rect x="646" y="210" width="12" height="12" fill="#FFA000"/>
<rect x="658" y="210" width="12" height="12" fill="#FF8400"/>
<rect x="670" y="210" width="12" height="12" fill="#FF6800"/>
<rect x="682" y="210" width="12" height="12" fill="#FF4D00"/>
<rect x="694" y="210" width="12" height="12" fill="#FF3300"/>
<rect x="706" y="210" width="12" height="12" fill="#FF1900"/>
<rect x="718" y="210" width="12" height="12" fill="#FF0000"/>
<text x="563" y="221" font-size="12" fill="#ffffff">0 km</text>
<text x="664" y="235" font-size="12" fill="#ffffff">5 km</text>
<text x="735" y="221" font-size="12" fill="#ffffff">10 km</text>
</svg>
